<svg width="235" height="24" viewBox="0 0 235 24" fill="none" xmlns="http://www.w3.org/2000/svg">
<path d="M17.457 6.69054C18.7122 6.69054 19.6741 7.0179 20.3426 7.67263C21.0248 8.32737 21.3659 9.23444 21.3659 10.3939C21.3659 10.7758 21.3249 11.185 21.2431 11.6215L20.0561 18.312H15.5332L16.6179 12.1944C16.6315 12.1125 16.6384 11.9966 16.6384 11.8465C16.6384 11.451 16.5156 11.1509 16.27 10.9463C16.038 10.728 15.7106 10.6189 15.2876 10.6189C14.7965 10.6189 14.3803 10.7553 14.0393 11.0281C13.7118 11.2873 13.5003 11.6488 13.4048 12.1125L12.2997 18.312H7.77685L8.86151 12.1944C8.87515 12.1125 8.88198 11.9966 8.88198 11.8465C8.88198 11.451 8.75918 11.1509 8.5136 10.9463C8.28166 10.728 7.95421 10.6189 7.53126 10.6189C7.04009 10.6189 6.62396 10.7553 6.28287 11.0281C5.95543 11.3009 5.74395 11.6692 5.64845 12.133L4.54332 18.312H0L2.04654 6.77238H6.58985L6.30334 8.32737C6.72629 7.83632 7.24475 7.44075 7.85871 7.14066C8.47267 6.84058 9.16167 6.69054 9.92571 6.69054C10.758 6.69054 11.4606 6.87468 12.0336 7.24297C12.6203 7.59761 13.0433 8.10912 13.3025 8.77749C13.8346 8.16368 14.4554 7.66581 15.1648 7.28389C15.888 6.88832 16.652 6.69054 17.457 6.69054Z" fill="#6F10BA"/>
<path d="M29.3713 6.62916C30.8994 6.62916 32.1137 7.03836 33.0142 7.85678C33.9147 8.66155 34.3649 9.76641 34.3649 11.1714C34.3649 11.5669 34.324 11.9898 34.2421 12.4399C34.1466 12.89 34.0716 13.1901 34.017 13.3402H26.7313C26.7177 13.422 26.7108 13.5379 26.7108 13.688C26.7108 14.4518 27.0383 14.8338 27.6932 14.8338C28.198 14.8338 28.5937 14.6087 28.8802 14.1586H33.6895C33.3894 14.977 32.9187 15.7136 32.2774 16.3683C31.6362 17.0094 30.879 17.5209 30.0058 17.9028C29.1462 18.2711 28.2389 18.4552 27.2839 18.4552C25.7558 18.4552 24.5415 18.0529 23.641 17.2481C22.7542 16.4297 22.3108 15.2975 22.3108 13.8517C22.3108 13.4288 22.3517 12.9923 22.4336 12.5422C22.6519 11.3419 23.0885 10.2984 23.7434 9.41176C24.3983 8.51151 25.21 7.82268 26.1787 7.34527C27.1611 6.86786 28.2253 6.62916 29.3713 6.62916ZM29.8011 11.4783C29.8148 11.4101 29.8216 11.3078 29.8216 11.1714C29.8216 10.844 29.7193 10.5985 29.5146 10.4348C29.3099 10.2711 29.0507 10.1893 28.7369 10.1893C27.9183 10.1893 27.3657 10.6189 27.0792 11.4783H29.8011Z" fill="#6F10BA"/>
<path d="M48.8996 6.77238L46.8531 18.312H42.3098L42.6168 16.5729C42.1665 17.1185 41.614 17.5618 40.9591 17.9028C40.3042 18.2302 39.5742 18.3939 38.7693 18.3939C37.6505 18.3939 36.7909 18.0733 36.1906 17.4322C35.5903 16.7775 35.2902 15.8841 35.2902 14.7519C35.2902 14.3427 35.3311 13.913 35.4129 13.4629L36.5999 6.77238H41.1228L40.0381 12.89C40.0108 13.1083 39.9972 13.2583 39.9972 13.3402C39.9972 13.763 40.1132 14.0904 40.3451 14.3223C40.5907 14.5541 40.925 14.6701 41.3479 14.6701C41.8391 14.6701 42.2552 14.5132 42.5963 14.1995C42.9374 13.8858 43.1625 13.4561 43.2717 12.9105L44.3563 6.77238H48.8996Z" fill="#6F10BA"/>
<path d="M54.3693 18.4552C53.3461 18.4552 52.4456 18.2575 51.6679 17.8619C50.8902 17.4663 50.2831 16.9071 49.8465 16.1841C49.4099 15.4476 49.1916 14.5951 49.1916 13.6266C49.1916 12.2899 49.5054 11.0895 50.133 10.0256C50.7742 8.96164 51.6474 8.12958 52.7526 7.52941C53.8577 6.92924 55.0924 6.62916 56.4568 6.62916C57.4801 6.62916 58.3805 6.83376 59.1582 7.24297C59.9359 7.63853 60.543 8.2046 60.9796 8.94118C61.4162 9.66411 61.6345 10.5098 61.6345 11.4783C61.6345 12.815 61.3207 14.0153 60.6931 15.0793C60.0655 16.1432 59.1992 16.9753 58.094 17.5754C56.9889 18.162 55.7473 18.4552 54.3693 18.4552ZM55.0651 14.5269C55.6518 14.5269 56.1157 14.2609 56.4568 13.7289C56.7979 13.1969 56.9684 12.6036 56.9684 11.9488C56.9684 11.4851 56.8525 11.1373 56.6205 10.9054C56.4022 10.6735 56.1157 10.5575 55.761 10.5575C55.1743 10.5575 54.7104 10.8235 54.3693 11.3555C54.0282 11.8875 53.8577 12.4808 53.8577 13.1355C53.8577 13.5993 53.9668 13.9471 54.1851 14.179C54.4034 14.4109 54.6968 14.5269 55.0651 14.5269Z" fill="#6F10BA"/>
<path d="M68.1372 8.90026C68.7239 8.23188 69.3788 7.69991 70.1019 7.30435C70.8387 6.89514 71.5686 6.69054 72.2917 6.69054L71.4526 11.5396H70.1633C69.3038 11.5396 68.6421 11.6897 68.1782 11.9898C67.7279 12.2899 67.4346 12.8218 67.2982 13.5857L66.4591 18.312H61.9158L63.9623 6.77238H68.5056L68.1372 8.90026Z" fill="#6F10BA"/>
<path d="M77.3221 14.5678C77.8405 14.5678 78.2362 14.2677 78.509 13.6675H83.3184C82.8682 14.9361 82.1792 15.9727 81.2514 16.7775C80.3373 17.5823 79.2799 18.1006 78.0793 18.3325L77.9565 19.0077C78.5159 19.0077 79.0275 19.1645 79.4914 19.4783C79.9689 19.792 80.2077 20.2899 80.2077 20.9719C80.2077 21.2038 80.194 21.3811 80.1667 21.5038C80.003 22.3905 79.5801 23.0247 78.8979 23.4066C78.2157 23.8022 77.4653 24 76.6467 24H73.1062L73.5155 21.688H76.5853C76.749 21.688 76.8855 21.6539 76.9946 21.5857C77.1038 21.5311 77.1652 21.4561 77.1788 21.3606V21.2992C77.1788 21.1355 77.0219 21.0537 76.7081 21.0537H74.9685L75.4597 18.3529C74.3 18.1347 73.3927 17.6368 72.7378 16.8593C72.0829 16.0818 71.7555 15.0793 71.7555 13.8517C71.7555 13.4425 71.7964 13.006 71.8783 12.5422C72.0966 11.3419 72.5332 10.2984 73.188 9.41176C73.8429 8.51151 74.6547 7.82268 75.6234 7.34527C76.6058 6.86786 77.67 6.62916 78.816 6.62916C80.3168 6.62916 81.5038 7.052 82.377 7.8977C83.2638 8.74339 83.7141 9.91645 83.7277 11.4169H78.9184C78.8228 10.8167 78.5227 10.5166 78.0179 10.5166C77.6495 10.5166 77.3289 10.6871 77.056 11.0281C76.7968 11.3691 76.6058 11.8738 76.483 12.5422C76.4284 12.9241 76.4011 13.1765 76.4011 13.2992C76.4011 13.7221 76.483 14.0426 76.6467 14.2609C76.8104 14.4655 77.0355 14.5678 77.3221 14.5678Z" fill="#6F10BA"/>
<path d="M84.3494 12.5422C84.5676 11.3282 84.9633 10.2779 85.5363 9.3913C86.1094 8.49105 86.7984 7.80904 87.6033 7.34527C88.4083 6.86786 89.261 6.62916 90.1615 6.62916C90.9119 6.62916 91.5327 6.78602 92.0239 7.09974C92.515 7.39983 92.8561 7.81586 93.0471 8.34783L93.3337 6.77238H97.8565L95.81 18.312H91.2871L91.5736 16.7366C91.1916 17.2685 90.7004 17.6914 90.1001 18.0051C89.4998 18.3052 88.8245 18.4552 88.0741 18.4552C86.9144 18.4552 85.9798 18.0665 85.2703 17.289C84.5608 16.5115 84.2061 15.4339 84.2061 14.0563C84.2061 13.5379 84.2538 13.0332 84.3494 12.5422ZM92.3104 12.5422C92.3377 12.4194 92.3513 12.2558 92.3513 12.0512C92.3513 11.5874 92.2285 11.2327 91.9829 10.9872C91.7374 10.728 91.4031 10.5985 90.9801 10.5985C90.489 10.5985 90.0524 10.769 89.6704 11.11C89.302 11.451 89.0632 11.9284 88.9541 12.5422C88.9268 12.665 88.9131 12.8286 88.9131 13.0332C88.9131 13.497 89.0359 13.8585 89.2815 14.1176C89.5271 14.3632 89.8614 14.4859 90.2843 14.4859C90.7755 14.4859 91.2053 14.3154 91.5736 13.9744C91.9557 13.6334 92.2012 13.156 92.3104 12.5422Z" fill="#6F10BA"/>
<path d="M115.307 6.69054C116.562 6.69054 117.524 7.0179 118.193 7.67263C118.875 8.32737 119.216 9.23444 119.216 10.3939C119.216 10.7758 119.175 11.185 119.093 11.6215L117.906 18.312H113.383L114.468 12.1944C114.482 12.1125 114.488 11.9966 114.488 11.8465C114.488 11.451 114.366 11.1509 114.12 10.9463C113.888 10.728 113.561 10.6189 113.138 10.6189C112.647 10.6189 112.23 10.7553 111.889 11.0281C111.562 11.2873 111.35 11.6488 111.255 12.1125L110.15 18.312H105.627L106.712 12.1944C106.725 12.1125 106.732 11.9966 106.732 11.8465C106.732 11.451 106.609 11.1509 106.364 10.9463C106.132 10.728 105.804 10.6189 105.381 10.6189C104.89 10.6189 104.474 10.7553 104.133 11.0281C103.806 11.3009 103.594 11.6692 103.499 12.133L102.393 18.312H97.8501L99.8967 6.77238H104.44L104.153 8.32737C104.576 7.83632 105.095 7.44075 105.709 7.14066C106.323 6.84058 107.012 6.69054 107.776 6.69054C108.608 6.69054 109.311 6.87468 109.884 7.24297C110.47 7.59761 110.893 8.10912 111.153 8.77749C111.685 8.16368 112.305 7.66581 113.015 7.28389C113.738 6.88832 114.502 6.69054 115.307 6.69054Z" fill="#6F10BA"/>
<path d="M127.221 6.62916C128.75 6.62916 129.964 7.03836 130.864 7.85678C131.765 8.66155 132.215 9.76641 132.215 11.1714C132.215 11.5669 132.174 11.9898 132.092 12.4399C131.997 12.89 131.922 13.1901 131.867 13.3402H124.581C124.568 13.422 124.561 13.5379 124.561 13.688C124.561 14.4518 124.888 14.8338 125.543 14.8338C126.048 14.8338 126.444 14.6087 126.73 14.1586H131.54C131.239 14.977 130.769 15.7136 130.128 16.3683C129.486 17.0094 128.729 17.5209 127.856 17.9028C126.996 18.2711 126.089 18.4552 125.134 18.4552C123.606 18.4552 122.392 18.0529 121.491 17.2481C120.604 16.4297 120.161 15.2975 120.161 13.8517C120.161 13.4288 120.202 12.9923 120.284 12.5422C120.502 11.3419 120.939 10.2984 121.593 9.41176C122.248 8.51151 123.06 7.82268 124.029 7.34527C125.011 6.86786 126.075 6.62916 127.221 6.62916ZM127.651 11.4783C127.665 11.4101 127.672 11.3078 127.672 11.1714C127.672 10.844 127.569 10.5985 127.365 10.4348C127.16 10.2711 126.901 10.1893 126.587 10.1893C125.768 10.1893 125.216 10.6189 124.929 11.4783H127.651Z" fill="#6F10BA"/>
<path d="M142.616 6.69054C143.735 6.69054 144.594 7.0179 145.194 7.67263C145.795 8.31373 146.095 9.20034 146.095 10.3325C146.095 10.7417 146.054 11.1714 145.972 11.6215L144.785 18.312H140.262L141.347 12.1944C141.374 11.9761 141.388 11.8261 141.388 11.7442C141.388 11.3214 141.265 10.994 141.019 10.7621C140.787 10.5303 140.46 10.4143 140.037 10.4143C139.546 10.4143 139.13 10.5712 138.789 10.8849C138.448 11.1986 138.222 11.6283 138.113 12.1739L137.029 18.312H132.485L134.532 6.77238H139.075L138.768 8.51151C139.218 7.9659 139.771 7.52941 140.426 7.20205C141.081 6.86104 141.811 6.69054 142.616 6.69054Z" fill="#6F10BA"/>
<path d="M152.833 13.6675C152.82 13.7221 152.813 13.7903 152.813 13.8721C152.813 14.254 153.059 14.445 153.55 14.445H154.634L153.939 18.312H152.219C149.532 18.312 148.188 17.1731 148.188 14.8951C148.188 14.4859 148.229 14.0494 148.311 13.5857L148.843 10.5575H147.41L148.085 6.77238H149.518L150.009 3.98977H154.552L154.061 6.77238H155.944L155.269 10.5575H153.386L152.833 13.6675Z" fill="#6F10BA"/>
<path d="M161.133 18.4552C160.11 18.4552 159.209 18.2575 158.432 17.8619C157.654 17.4663 157.047 16.9071 156.61 16.1841C156.174 15.4476 155.955 14.5951 155.955 13.6266C155.955 12.2899 156.269 11.0895 156.897 10.0256C157.538 8.96164 158.411 8.12958 159.516 7.52941C160.621 6.92924 161.856 6.62916 163.221 6.62916C164.244 6.62916 165.144 6.83376 165.922 7.24297C166.7 7.63853 167.307 8.2046 167.743 8.94118C168.18 9.66411 168.398 10.5098 168.398 11.4783C168.398 12.815 168.084 14.0153 167.457 15.0793C166.829 16.1432 165.963 16.9753 164.858 17.5754C163.753 18.162 162.511 18.4552 161.133 18.4552ZM161.829 14.5269C162.416 14.5269 162.879 14.2609 163.221 13.7289C163.562 13.1969 163.732 12.6036 163.732 11.9488C163.732 11.4851 163.616 11.1373 163.384 10.9054C163.166 10.6735 162.879 10.5575 162.525 10.5575C161.938 10.5575 161.474 10.8235 161.133 11.3555C160.792 11.8875 160.621 12.4808 160.621 13.1355C160.621 13.5993 160.731 13.9471 160.949 14.179C161.167 14.4109 161.461 14.5269 161.829 14.5269Z" fill="#6F10BA"/>
<path d="M177.521 5.95396C177.275 5.92668 177.111 5.91304 177.029 5.91304C176.675 5.91304 176.388 5.98125 176.17 6.11765C175.965 6.25405 175.808 6.47229 175.699 6.77238H177.377L176.702 10.5575H175.003L173.632 18.312H169.089L170.46 10.5575H169.232L169.907 6.77238H171.135C171.422 5.27195 172.097 4.11253 173.161 3.29412C174.226 2.46206 175.59 2.04604 177.255 2.04604C177.446 2.04604 177.759 2.05968 178.196 2.08696L177.521 5.95396Z" fill="#6F10BA"/>
<path d="M176.963 12.5422C177.182 11.3282 177.577 10.2779 178.15 9.3913C178.723 8.49105 179.412 7.80904 180.217 7.34527C181.022 6.86786 181.875 6.62916 182.775 6.62916C183.526 6.62916 184.147 6.78602 184.638 7.09974C185.129 7.39983 185.47 7.81586 185.661 8.34783L185.948 6.77238H190.47L188.424 18.312H183.901L184.187 16.7366C183.805 17.2685 183.314 17.6914 182.714 18.0051C182.114 18.3052 181.438 18.4552 180.688 18.4552C179.528 18.4552 178.594 18.0665 177.884 17.289C177.175 16.5115 176.82 15.4339 176.82 14.0563C176.82 13.5379 176.868 13.0332 176.963 12.5422ZM184.924 12.5422C184.952 12.4194 184.965 12.2558 184.965 12.0512C184.965 11.5874 184.842 11.2327 184.597 10.9872C184.351 10.728 184.017 10.5985 183.594 10.5985C183.103 10.5985 182.666 10.769 182.284 11.11C181.916 11.451 181.677 11.9284 181.568 12.5422C181.541 12.665 181.527 12.8286 181.527 13.0332C181.527 13.497 181.65 13.8585 181.895 14.1176C182.141 14.3632 182.475 14.4859 182.898 14.4859C183.389 14.4859 183.819 14.3154 184.187 13.9744C184.569 13.6334 184.815 13.156 184.924 12.5422Z" fill="#6F10BA"/>
<path d="M190.873 12.5422C191.092 11.3419 191.528 10.2984 192.183 9.41176C192.838 8.51151 193.65 7.82268 194.618 7.34527C195.601 6.86786 196.665 6.62916 197.811 6.62916C199.312 6.62916 200.499 7.052 201.372 7.8977C202.259 8.74339 202.709 9.91645 202.723 11.4169H197.913C197.818 10.8167 197.518 10.5166 197.013 10.5166C196.645 10.5166 196.324 10.6871 196.051 11.0281C195.792 11.3691 195.601 11.8738 195.478 12.5422C195.423 12.9241 195.396 13.1765 195.396 13.2992C195.396 13.7221 195.478 14.0426 195.642 14.2609C195.805 14.4655 196.031 14.5678 196.317 14.5678C196.836 14.5678 197.231 14.2677 197.504 13.6675H202.313C201.781 15.1679 200.922 16.341 199.735 17.1867C198.561 18.0324 197.224 18.4552 195.724 18.4552C194.195 18.4552 192.981 18.0529 192.081 17.2481C191.194 16.4297 190.75 15.2975 190.75 13.8517C190.75 13.4288 190.791 12.9923 190.873 12.5422Z" fill="#6F10BA"/>
<path d="M207.437 5.85166C206.728 5.85166 206.169 5.68116 205.759 5.34015C205.364 4.99915 205.166 4.55584 205.166 4.01023C205.166 3.53282 205.295 3.08951 205.555 2.68031C205.814 2.2711 206.175 1.95055 206.639 1.71867C207.117 1.47315 207.642 1.35038 208.215 1.35038C208.911 1.35038 209.457 1.52771 209.852 1.88235C210.262 2.22336 210.466 2.67349 210.466 3.23274C210.466 3.71014 210.337 4.14663 210.077 4.5422C209.818 4.93777 209.457 5.25831 208.993 5.50384C208.529 5.73572 208.01 5.85166 207.437 5.85166ZM209.525 6.77238L207.478 18.312H202.935L204.982 6.77238H209.525Z" fill="#6F10BA"/>
<path d="M216.755 3.17136L214.074 18.312H209.53L212.211 3.17136H216.755Z" fill="#6F10BA"/>
<path d="M221.834 18.4757C221.124 18.4757 220.565 18.3052 220.156 17.9642C219.76 17.6232 219.562 17.1799 219.562 16.6343C219.562 16.1569 219.692 15.7136 219.951 15.3043C220.224 14.8951 220.592 14.5746 221.056 14.3427C221.534 14.0972 222.059 13.9744 222.632 13.9744C223.328 13.9744 223.874 14.1517 224.269 14.5064C224.665 14.8474 224.863 15.2907 224.863 15.8363C224.863 16.3137 224.733 16.757 224.474 17.1662C224.215 17.5618 223.853 17.8824 223.389 18.1279C222.925 18.3598 222.407 18.4757 221.834 18.4757ZM221.834 10.3734C221.124 10.3734 220.565 10.2029 220.156 9.86189C219.76 9.52089 219.562 9.07758 219.562 8.53197C219.562 8.05456 219.692 7.61125 219.951 7.20205C220.224 6.79284 220.592 6.47229 221.056 6.24041C221.534 5.99488 222.059 5.87212 222.632 5.87212C223.328 5.87212 223.874 6.04945 224.269 6.40409C224.665 6.7451 224.863 7.18841 224.863 7.73402C224.863 8.21142 224.733 8.65473 224.474 9.06394C224.215 9.45951 223.853 9.78005 223.389 10.0256C222.925 10.2575 222.407 10.3734 221.834 10.3734Z" fill="#6F10BA"/>
<path d="M224.051 22.9974L224.112 22.5882C225.409 21.4425 226.548 20.1057 227.53 18.578C228.512 17.0639 229.27 15.4544 229.802 13.7494C230.334 12.0443 230.6 10.3461 230.6 8.65473C230.6 7.07246 230.375 5.57204 229.925 4.15345C229.488 2.73487 228.854 1.49361 228.021 0.429668L228.103 0H232.483C233.288 0.927536 233.908 2.08696 234.345 3.47826C234.782 4.85593 235 6.37681 235 8.04092C235 9.86871 234.734 11.7306 234.202 13.6266C233.67 15.509 232.906 17.2685 231.91 18.9054C230.927 20.5422 229.768 21.9062 228.431 22.9974H224.051Z" fill="#6F10BA"/>
</svg>
