<svg width="444" height="97" viewBox="0 0 444 97" fill="none" xmlns="http://www.w3.org/2000/svg">
<path d="M29.562 70.679C23.8067 70.679 18.7303 69.4827 14.333 67.09C9.93567 64.6973 6.54067 61.3347 4.148 57.002C1.75533 52.6693 0.559 47.69 0.559 42.064C0.559 33.9807 2.24033 26.8027 5.603 20.53C9.03033 14.1927 13.7833 9.278 19.862 5.78599C26.0053 2.294 33.0217 0.547998 40.911 0.547998C46.7957 0.547998 51.9367 1.74433 56.334 4.137C60.796 6.465 64.2233 9.79533 66.616 14.128C69.0087 18.396 70.205 23.343 70.205 28.969C70.205 36.9877 68.4913 44.1657 65.064 50.503C61.6367 56.8403 56.8513 61.7873 50.708 65.344C44.5647 68.9007 37.516 70.679 29.562 70.679ZM32.472 53.025C36.2873 53.025 39.6177 52.0227 42.463 50.018C45.373 48.0133 47.5717 45.362 49.059 42.064C50.611 38.7013 51.387 35.08 51.387 31.2C51.387 27.0613 50.2553 23.8603 47.992 21.597C45.7933 19.269 42.6247 18.105 38.486 18.105C34.6707 18.105 31.308 19.1073 28.398 21.112C25.488 23.052 23.257 25.671 21.705 28.969C20.153 32.267 19.377 35.8883 19.377 39.833C19.377 43.907 20.5087 47.1403 22.772 49.533C25.0353 51.861 28.2687 53.025 32.472 53.025ZM99.8006 25.477C102.452 22.3083 105.459 19.7863 108.822 17.911C112.184 16.0357 115.612 15.098 119.104 15.098L115.612 35.371H110.277C106.267 35.371 103.131 36.1147 100.868 37.602C98.6043 39.0893 97.0846 41.676 96.3086 45.362L91.9436 70H72.8346L82.5346 15.583H101.547L99.8006 25.477ZM143.088 54.48C146.58 54.48 149.135 52.7017 150.751 49.145H171.024C168.826 54.965 165.56 59.718 161.227 63.404C156.895 67.0253 151.883 69.2887 146.192 70.194L145.61 73.589C148.456 73.589 150.945 74.3327 153.079 75.82C155.278 77.3073 156.377 79.5707 156.377 82.61C156.377 83.6447 156.313 84.453 156.183 85.035C155.472 88.9797 153.564 91.8897 150.46 93.765C147.356 95.6403 143.897 96.578 140.081 96.578H124.27L126.016 86.587H139.693C140.663 86.587 141.472 86.393 142.118 86.005C142.765 85.6817 143.121 85.1967 143.185 84.55C143.444 83.192 142.506 82.513 140.372 82.513H132.806L135.037 70.194C129.476 69.2887 125.143 66.993 122.039 63.307C118.935 59.5563 117.383 54.7387 117.383 48.854C117.383 46.914 117.577 44.877 117.965 42.743C119 37.0523 121.037 32.1377 124.076 27.999C127.18 23.7957 130.996 20.5623 135.522 18.299C140.114 16.0357 145.093 14.904 150.46 14.904C157.38 14.904 162.876 16.8117 166.95 20.627C171.024 24.3777 173.158 29.648 173.352 36.438H153.079C152.562 32.8813 150.59 31.103 147.162 31.103C144.77 31.103 142.7 32.1053 140.954 34.11C139.208 36.05 138.012 38.9277 137.365 42.743C137.107 44.0363 136.977 45.3297 136.977 46.623C136.977 49.2097 137.527 51.182 138.626 52.54C139.726 53.8333 141.213 54.48 143.088 54.48ZM176.885 42.743C177.92 37.117 179.828 32.2023 182.608 27.999C185.389 23.7957 188.719 20.5623 192.599 18.299C196.544 16.0357 200.683 14.904 205.015 14.904C208.766 14.904 211.87 15.6477 214.327 17.135C216.785 18.6223 218.498 20.627 219.468 23.149L220.826 15.583H239.838L230.235 70H211.223L212.581 62.434C210.706 64.956 208.249 66.9607 205.209 68.448C202.17 69.9353 198.807 70.679 195.121 70.679C189.431 70.679 184.872 68.8037 181.444 65.053C178.017 61.2377 176.303 56.0643 176.303 49.533C176.303 47.399 176.497 45.1357 176.885 42.743ZM216.073 42.743C216.267 41.773 216.364 40.8677 216.364 40.027C216.364 37.311 215.588 35.2093 214.036 33.722C212.549 32.2347 210.609 31.491 208.216 31.491C205.371 31.491 202.817 32.4933 200.553 34.498C198.29 36.438 196.867 39.1863 196.285 42.743C196.091 43.713 195.994 44.6507 195.994 45.556C195.994 48.272 196.738 50.3737 198.225 51.861C199.777 53.3483 201.75 54.092 204.142 54.092C206.988 54.092 209.542 53.0897 211.805 51.085C214.069 49.0803 215.491 46.2997 216.073 42.743ZM286.368 58.845H262.118L256.492 70H236.51L273.467 1.615H295.389L308.193 70H288.114L286.368 58.845ZM284.137 44.392L280.742 22.179L269.49 44.392H284.137ZM341.647 23.149C343.587 20.627 346.044 18.6223 349.019 17.135C351.993 15.6477 355.324 14.904 359.01 14.904C364.7 14.904 369.259 16.7793 372.687 20.53C376.179 24.2807 377.925 29.4217 377.925 35.953C377.925 38.0223 377.731 40.2857 377.343 42.743C376.308 48.369 374.4 53.316 371.62 57.584C368.839 61.7873 365.476 65.0207 361.532 67.284C357.652 69.5473 353.545 70.679 349.213 70.679C345.527 70.679 342.455 69.9353 339.998 68.448C337.605 66.9607 335.859 64.956 334.76 62.434L328.843 95.996H309.831L323.993 15.583H343.005L341.647 23.149ZM357.943 42.743C358.137 41.773 358.234 40.8353 358.234 39.93C358.234 37.2787 357.458 35.2093 355.906 33.722C354.418 32.2347 352.478 31.491 350.086 31.491C347.305 31.491 344.751 32.4933 342.423 34.498C340.159 36.5027 338.737 39.251 338.155 42.743C337.961 43.713 337.864 44.6183 337.864 45.459C337.864 48.175 338.607 50.309 340.095 51.861C341.647 53.3483 343.619 54.092 346.012 54.092C348.857 54.092 351.411 53.0897 353.675 51.085C355.938 49.0157 357.361 46.235 357.943 42.743ZM407.576 23.149C409.516 20.627 411.974 18.6223 414.948 17.135C417.923 15.6477 421.253 14.904 424.939 14.904C430.63 14.904 435.189 16.7793 438.616 20.53C442.108 24.2807 443.854 29.4217 443.854 35.953C443.854 38.0223 443.66 40.2857 443.272 42.743C442.238 48.369 440.33 53.316 437.549 57.584C434.769 61.7873 431.406 65.0207 427.461 67.284C423.581 69.5473 419.475 70.679 415.142 70.679C411.456 70.679 408.385 69.9353 405.927 68.448C403.535 66.9607 401.789 64.956 400.689 62.434L394.772 95.996H375.76L389.922 15.583H408.934L407.576 23.149ZM423.872 42.743C424.066 41.773 424.163 40.8353 424.163 39.93C424.163 37.2787 423.387 35.2093 421.835 33.722C420.348 32.2347 418.408 31.491 416.015 31.491C413.235 31.491 410.68 32.4933 408.352 34.498C406.089 36.5027 404.666 39.251 404.084 42.743C403.89 43.713 403.793 44.6183 403.793 45.459C403.793 48.175 404.537 50.309 406.024 51.861C407.576 53.3483 409.549 54.092 411.941 54.092C414.787 54.092 417.341 53.0897 419.604 51.085C421.868 49.0157 423.29 46.235 423.872 42.743Z" fill="#6F10BA"/>
</svg>
