<svg width="1080" height="342" viewBox="0 0 1080 342" fill="none" xmlns="http://www.w3.org/2000/svg">
<rect width="1080" height="342" fill="white"/>
<path d="M281.756 211.24V242.816H197.244V211.24C197.244 204.091 200.083 197.236 205.136 192.181C210.189 187.126 217.043 184.286 224.189 184.286H254.795C261.942 184.286 268.795 187.126 273.848 192.181C278.901 197.236 281.74 204.091 281.74 211.24H281.756Z" fill="#68E1FD"/>
<path d="M281.756 243.608H197.244C197.034 243.608 196.832 243.525 196.684 243.376C196.535 243.227 196.451 243.026 196.451 242.816V211.24C196.451 203.881 199.374 196.823 204.576 191.62C209.777 186.416 216.832 183.493 224.189 183.493H254.795C262.152 183.493 269.207 186.416 274.409 191.62C279.61 196.823 282.533 203.881 282.533 211.24V242.816C282.533 243.023 282.451 243.222 282.306 243.371C282.161 243.519 281.964 243.604 281.756 243.608V243.608ZM198.036 242.023H280.964V211.24C280.964 204.301 278.208 197.647 273.304 192.741C268.399 187.835 261.747 185.079 254.811 185.079H224.197C219.997 185.064 215.857 186.073 212.135 188.02C207.883 190.229 204.319 193.565 201.832 197.662C199.346 201.76 198.033 206.462 198.036 211.256V242.023Z" fill="#093F68"/>
<path d="M245.753 171.76H233.247V184.27H245.753V171.76Z" fill="#FFC9B0"/>
<path d="M245.753 185.063H233.247C233.037 185.063 232.835 184.98 232.687 184.831C232.538 184.682 232.455 184.481 232.455 184.27V171.761C232.455 171.55 232.538 171.349 232.687 171.2C232.835 171.051 233.037 170.968 233.247 170.968H245.753C245.963 170.968 246.165 171.051 246.313 171.2C246.462 171.349 246.545 171.55 246.545 171.761V184.27C246.545 184.481 246.462 184.682 246.313 184.831C246.165 184.98 245.963 185.063 245.753 185.063ZM234.04 183.478H244.96V172.553H234.04V183.478Z" fill="#093F68"/>
<path d="M213.728 160.352C218.612 160.352 222.572 154.922 222.572 148.223C222.572 141.524 218.612 136.094 213.728 136.094C208.843 136.094 204.884 141.524 204.884 148.223C204.884 154.922 208.843 160.352 213.728 160.352Z" fill="#FFC9B0"/>
<path d="M213.728 161.145C208.418 161.145 204.099 155.35 204.099 148.223C204.099 141.096 208.418 135.293 213.728 135.293C219.038 135.293 223.365 141.096 223.365 148.223C223.365 155.35 219.046 161.145 213.728 161.145ZM213.728 136.878C209.29 136.878 205.684 141.968 205.684 148.223C205.684 154.478 209.29 159.559 213.728 159.559C218.166 159.559 221.78 154.478 221.78 148.223C221.78 141.968 218.166 136.878 213.728 136.878V136.878Z" fill="#093F68"/>
<path d="M265.272 160.352C270.157 160.352 274.116 154.922 274.116 148.223C274.116 141.524 270.157 136.094 265.272 136.094C260.388 136.094 256.428 141.524 256.428 148.223C256.428 154.922 260.388 160.352 265.272 160.352Z" fill="#FFC9B0"/>
<path d="M265.272 161.145C259.962 161.145 255.635 155.35 255.635 148.223C255.635 141.096 259.962 135.293 265.272 135.293C270.582 135.293 274.909 141.096 274.909 148.223C274.909 155.35 270.582 161.145 265.272 161.145ZM265.272 136.878C260.834 136.878 257.22 141.968 257.22 148.223C257.22 154.478 260.834 159.559 265.272 159.559C269.71 159.559 273.324 154.478 273.324 148.223C273.324 141.968 269.71 136.878 265.272 136.878V136.878Z" fill="#093F68"/>
<path d="M256.864 115.308C258.188 115.307 259.499 115.567 260.723 116.073C261.946 116.579 263.058 117.322 263.994 118.259C264.93 119.195 265.673 120.307 266.179 121.531C266.685 122.755 266.945 124.067 266.944 125.392V152.655C266.945 156.101 266.268 159.514 264.95 162.699C263.632 165.883 261.7 168.777 259.264 171.215C256.828 173.652 253.936 175.586 250.753 176.905C247.57 178.224 244.158 178.903 240.713 178.903H238.335C234.889 178.904 231.476 178.226 228.291 176.907C225.107 175.589 222.213 173.655 219.776 171.218C217.338 168.78 215.405 165.886 214.086 162.701C212.766 159.516 212.087 156.102 212.087 152.655V125.392C212.087 122.717 213.149 120.152 215.04 118.261C216.93 116.37 219.494 115.308 222.168 115.308H256.864Z" fill="#FFC9B0"/>
<path d="M240.713 179.695H238.335C231.167 179.687 224.296 176.836 219.227 171.767C214.158 166.697 211.305 159.824 211.295 152.654V125.391C211.299 122.508 212.446 119.744 214.484 117.705C216.522 115.666 219.286 114.519 222.168 114.515H256.895C259.773 114.525 262.529 115.675 264.561 117.714C266.593 119.752 267.735 122.513 267.737 125.391V152.654C267.73 159.823 264.882 166.696 259.815 171.766C254.749 176.835 247.879 179.687 240.713 179.695ZM222.136 116.1C219.674 116.104 217.314 117.085 215.573 118.826C213.832 120.568 212.852 122.928 212.848 125.391V152.654C212.857 159.404 215.541 165.875 220.314 170.648C225.086 175.42 231.556 178.104 238.303 178.11H240.681C247.427 178.102 253.893 175.417 258.663 170.644C263.432 165.872 266.114 159.402 266.12 152.654V125.391C266.116 122.928 265.136 120.568 263.395 118.826C261.654 117.085 259.294 116.104 256.832 116.1H222.136Z" fill="#093F68"/>
<path d="M258.916 160.526C256.063 156.309 248.447 153.288 239.5 153.288C230.553 153.288 222.937 156.309 220.084 160.526C217.541 158.081 215.52 155.148 214.14 151.901C212.76 148.655 212.051 145.162 212.056 141.635V152.654C212.056 156.102 212.735 159.516 214.054 162.701C215.373 165.886 217.307 168.78 219.744 171.217C222.181 173.655 225.075 175.588 228.259 176.907C231.444 178.225 234.857 178.904 238.303 178.902H240.681C244.126 178.902 247.538 178.223 250.721 176.904C253.904 175.585 256.796 173.652 259.232 171.214C261.668 168.777 263.6 165.883 264.918 162.698C266.236 159.514 266.914 156.101 266.913 152.654V141.635C266.921 145.16 266.217 148.651 264.843 151.897C263.469 155.144 261.453 158.079 258.916 160.526V160.526ZM239.5 171.292C232.589 171.292 226.915 168.509 226.234 164.95C226.186 164.712 226.162 164.471 226.162 164.228C226.162 160.32 232.13 157.157 239.5 157.157C246.87 157.157 252.838 160.328 252.838 164.228C252.838 164.476 252.814 164.723 252.766 164.966C252.069 168.517 246.403 171.292 239.5 171.292Z" fill="#725858"/>
<path d="M240.713 179.696H238.335C231.167 179.688 224.296 176.836 219.227 171.767C214.158 166.698 211.305 159.825 211.295 152.655V141.636C211.295 141.425 211.378 141.224 211.527 141.075C211.676 140.926 211.877 140.843 212.087 140.843C212.298 140.843 212.499 140.926 212.648 141.075C212.796 141.224 212.88 141.425 212.88 141.636C212.853 148.237 215.414 154.587 220.012 159.322C223.436 155.208 231.107 152.496 239.516 152.496C247.924 152.496 255.596 155.208 259.019 159.322C263.618 154.587 266.179 148.237 266.152 141.636C266.152 141.425 266.235 141.224 266.384 141.075C266.533 140.926 266.734 140.843 266.944 140.843C267.154 140.843 267.356 140.926 267.505 141.075C267.653 141.224 267.737 141.425 267.737 141.636V152.655C267.73 159.823 264.882 166.697 259.815 171.766C254.749 176.836 247.879 179.688 240.713 179.696V179.696ZM212.848 150.816V152.655C212.859 159.404 215.544 165.874 220.316 170.646C225.088 175.418 231.556 178.102 238.303 178.111H240.681C247.427 178.102 253.893 175.417 258.663 170.645C263.432 165.873 266.114 159.403 266.12 152.655V150.816C264.713 154.72 262.424 158.247 259.431 161.122C259.349 161.2 259.25 161.26 259.142 161.297C259.034 161.334 258.919 161.347 258.805 161.336C258.69 161.325 258.578 161.288 258.478 161.23C258.378 161.171 258.292 161.09 258.227 160.995C255.437 156.872 247.924 154.106 239.468 154.106C231.012 154.106 223.499 156.872 220.71 160.995C220.644 161.09 220.558 161.171 220.458 161.23C220.358 161.288 220.247 161.325 220.131 161.336C220.018 161.347 219.903 161.334 219.795 161.297C219.687 161.26 219.588 161.2 219.505 161.122C216.521 158.246 214.243 154.719 212.848 150.816V150.816ZM239.5 172.086C232.257 172.086 226.218 169.081 225.457 165.101C225.4 164.814 225.371 164.522 225.37 164.229C225.37 159.821 231.575 156.365 239.5 156.365C247.425 156.365 253.63 159.821 253.63 164.229C253.628 164.527 253.599 164.824 253.543 165.117C252.766 169.089 246.728 172.086 239.5 172.086ZM239.5 157.951C232.7 157.951 226.955 160.82 226.955 164.229C226.954 164.418 226.972 164.607 227.01 164.792C227.62 167.963 233.112 170.5 239.5 170.5C245.888 170.5 251.387 168.003 251.99 164.816C252.028 164.623 252.046 164.426 252.045 164.229C252.045 160.82 246.3 157.951 239.5 157.951V157.951Z" fill="#093F68"/>
<path d="M239.793 167.178C236.766 167.184 233.791 166.397 231.163 164.894C230.987 164.781 230.863 164.602 230.818 164.397C230.773 164.191 230.812 163.977 230.925 163.8C230.981 163.712 231.053 163.636 231.138 163.576C231.223 163.516 231.32 163.474 231.421 163.451C231.523 163.428 231.628 163.426 231.73 163.443C231.833 163.461 231.931 163.499 232.019 163.555C234.391 164.898 237.071 165.603 239.797 165.603C242.523 165.603 245.203 164.898 247.576 163.555C247.667 163.503 247.767 163.469 247.871 163.456C247.975 163.443 248.081 163.45 248.182 163.478C248.283 163.505 248.378 163.552 248.461 163.617C248.544 163.681 248.613 163.761 248.665 163.852C248.717 163.943 248.751 164.043 248.764 164.148C248.777 164.252 248.77 164.357 248.742 164.459C248.715 164.56 248.668 164.655 248.603 164.737C248.539 164.82 248.459 164.89 248.368 164.942C245.749 166.41 242.796 167.18 239.793 167.178V167.178Z" fill="#093F68"/>
<path d="M239.777 89.9951C248.172 89.9951 256.223 93.331 262.159 99.269C268.095 105.207 271.43 113.26 271.43 121.658V123.339H208.117V121.658C208.117 117.499 208.936 113.381 210.527 109.539C212.118 105.697 214.451 102.206 217.391 99.2662C220.331 96.3259 223.821 93.9938 227.662 92.403C231.503 90.8123 235.62 89.9941 239.777 89.9951V89.9951Z" fill="#68E1FD"/>
<path d="M271.43 124.131H208.117C207.907 124.131 207.705 124.047 207.557 123.899C207.408 123.75 207.324 123.548 207.324 123.338V121.657C207.458 113.136 210.935 105.01 217.006 99.0309C223.077 93.0522 231.254 89.7012 239.773 89.7012C248.293 89.7012 256.47 93.0522 262.541 99.0309C268.612 105.01 272.089 113.136 272.222 121.657V123.338C272.222 123.442 272.202 123.545 272.162 123.641C272.122 123.738 272.064 123.825 271.99 123.899C271.917 123.972 271.829 124.031 271.733 124.071C271.637 124.11 271.534 124.131 271.43 124.131V124.131ZM208.909 122.545H270.637V121.657C270.508 113.555 267.199 105.828 261.425 100.144C255.651 94.4598 247.874 91.2742 239.773 91.2742C231.672 91.2742 223.896 94.4598 218.122 100.144C212.348 105.828 209.039 113.555 208.909 121.657V122.545Z" fill="#093F68"/>
<path d="M272.222 123.338H207.325C203.967 123.338 201.246 126.058 201.246 129.414C201.246 132.77 203.967 135.491 207.325 135.491H272.222C275.579 135.491 278.301 132.77 278.301 129.414C278.301 126.058 275.579 123.338 272.222 123.338Z" fill="#68E1FD"/>
<path d="M272.23 136.285H207.325C206.403 136.316 205.485 136.161 204.624 135.83C203.764 135.499 202.979 134.998 202.316 134.357C201.653 133.716 201.126 132.948 200.766 132.099C200.406 131.25 200.22 130.337 200.22 129.415C200.22 128.493 200.406 127.58 200.766 126.731C201.126 125.882 201.653 125.114 202.316 124.473C202.979 123.832 203.764 123.331 204.624 123C205.485 122.669 206.403 122.515 207.325 122.546H272.23C274.011 122.606 275.699 123.357 276.937 124.638C278.176 125.92 278.868 127.633 278.868 129.415C278.868 131.198 278.176 132.91 276.937 134.192C275.699 135.474 274.011 136.224 272.23 136.285ZM207.325 124.131C206.614 124.104 205.905 124.22 205.24 124.473C204.575 124.726 203.968 125.111 203.455 125.605C202.943 126.098 202.535 126.69 202.256 127.345C201.977 127.999 201.834 128.704 201.834 129.415C201.834 130.127 201.977 130.831 202.256 131.486C202.535 132.141 202.943 132.733 203.455 133.226C203.968 133.719 204.575 134.104 205.24 134.357C205.905 134.61 206.614 134.727 207.325 134.699H272.23C273.596 134.646 274.888 134.066 275.835 133.081C276.782 132.096 277.312 130.782 277.312 129.415C277.312 128.048 276.782 126.734 275.835 125.749C274.888 124.764 273.596 124.184 272.23 124.131H207.325Z" fill="#093F68"/>
<path d="M235.672 87.5215H243.875C244.556 87.5208 245.229 87.6606 245.854 87.9321C246.478 88.2036 247.04 88.6009 247.504 89.0994C247.968 89.5978 248.325 90.1866 248.551 90.829C248.777 91.4714 248.869 92.1536 248.82 92.833L246.585 123.338H232.962L230.735 92.8092C230.688 92.1321 230.781 91.4527 231.008 90.8132C231.235 90.1736 231.591 89.5876 232.054 89.0916C232.518 88.5957 233.078 88.2003 233.7 87.9302C234.322 87.6601 234.994 87.521 235.672 87.5215Z" fill="#68E1FD"/>
<path d="M246.585 124.131H232.962C232.762 124.132 232.57 124.057 232.423 123.922C232.276 123.786 232.185 123.601 232.169 123.402L229.935 92.8962C229.876 92.1079 229.98 91.316 230.241 90.57C230.503 89.8239 230.915 89.14 231.453 88.5609C231.991 87.9819 232.643 87.5202 233.368 87.2049C234.092 86.8896 234.874 86.7274 235.664 86.7285H243.867C244.657 86.7274 245.439 86.8896 246.163 87.2049C246.888 87.5202 247.54 87.9819 248.078 88.5609C248.616 89.14 249.028 89.8239 249.29 90.57C249.551 91.316 249.655 92.1079 249.596 92.8962L247.362 123.402C247.346 123.598 247.258 123.782 247.114 123.916C246.97 124.051 246.782 124.128 246.585 124.131V124.131ZM233.699 122.545H245.84L248.027 92.809C248.07 92.238 247.994 91.6644 247.805 91.1242C247.615 90.584 247.316 90.0887 246.926 89.6696C246.536 89.2505 246.064 88.9166 245.539 88.6888C245.013 88.4609 244.447 88.3442 243.875 88.3458H235.672C235.1 88.3442 234.533 88.4609 234.008 88.6888C233.483 88.9166 233.011 89.2505 232.621 89.6696C232.231 90.0887 231.932 90.584 231.742 91.1242C231.553 91.6644 231.477 92.238 231.52 92.809L233.699 122.545Z" fill="#093F68"/>
<path d="M237.653 242.815H211.763V187.321C215.598 185.319 219.862 184.277 224.189 184.285H225.639C236.116 208.187 237.653 242.815 237.653 242.815Z" fill="#F56132"/>
<path d="M237.653 243.608H211.763C211.552 243.608 211.351 243.525 211.202 243.376C211.053 243.228 210.97 243.026 210.97 242.816V187.322C210.97 187.177 211.009 187.034 211.085 186.909C211.16 186.785 211.269 186.684 211.398 186.617C215.345 184.552 219.735 183.48 224.189 183.493H225.639C225.794 183.493 225.945 183.538 226.075 183.622C226.204 183.707 226.306 183.827 226.368 183.969C236.774 207.752 238.422 242.451 238.438 242.792C238.443 242.9 238.426 243.007 238.388 243.108C238.349 243.209 238.291 243.301 238.216 243.378C238.142 243.452 238.054 243.51 237.958 243.55C237.861 243.589 237.758 243.609 237.653 243.608V243.608ZM212.563 242.023H236.813C236.496 236.664 234.349 206.499 225.124 185.063H224.197C220.156 185.049 216.169 185.983 212.555 187.79L212.563 242.023Z" fill="#093F68"/>
<path d="M267.237 187.298V242.792H241.347C241.347 242.792 242.884 208.164 253.353 184.246H254.803C259.133 184.245 263.399 185.292 267.237 187.298V187.298Z" fill="#F56132"/>
<path d="M267.237 243.608H241.347C241.24 243.607 241.134 243.585 241.036 243.543C240.938 243.501 240.85 243.439 240.776 243.362C240.701 243.284 240.643 243.192 240.605 243.091C240.566 242.991 240.549 242.883 240.554 242.775C240.554 242.434 242.218 207.727 252.624 183.952C252.686 183.811 252.788 183.69 252.917 183.605C253.047 183.521 253.198 183.476 253.353 183.477H254.803C259.256 183.461 263.647 184.53 267.594 186.592C267.723 186.659 267.832 186.761 267.907 186.885C267.983 187.009 268.022 187.152 268.022 187.298V242.791C268.025 242.897 268.007 243.002 267.969 243.1C267.932 243.198 267.874 243.288 267.801 243.364C267.728 243.44 267.641 243.501 267.544 243.543C267.447 243.585 267.343 243.607 267.237 243.608V243.608ZM242.194 242.022H266.445V187.781C262.832 185.979 258.848 185.048 254.811 185.062H253.884C244.651 206.506 242.504 236.663 242.187 242.022H242.194Z" fill="#093F68"/>
<path d="M232.851 208.243H212.056C211.846 208.243 211.644 208.159 211.495 208.011C211.347 207.862 211.263 207.66 211.263 207.45C211.263 207.24 211.347 207.038 211.495 206.889C211.644 206.741 211.846 206.657 212.056 206.657H232.851C233.061 206.657 233.263 206.741 233.411 206.889C233.56 207.038 233.643 207.24 233.643 207.45C233.643 207.66 233.56 207.862 233.411 208.011C233.263 208.159 233.061 208.243 232.851 208.243Z" fill="#093F68"/>
<path d="M234.42 216.131H212.056C211.846 216.131 211.644 216.048 211.495 215.899C211.347 215.751 211.263 215.549 211.263 215.339C211.263 215.128 211.347 214.927 211.495 214.778C211.644 214.629 211.846 214.546 212.056 214.546H234.42C234.63 214.546 234.832 214.629 234.98 214.778C235.129 214.927 235.213 215.128 235.213 215.339C235.213 215.549 235.129 215.751 234.98 215.899C234.832 216.048 234.63 216.131 234.42 216.131Z" fill="#093F68"/>
<path d="M266.651 208.243H246.482C246.272 208.243 246.07 208.159 245.922 208.011C245.773 207.862 245.689 207.66 245.689 207.45C245.689 207.24 245.773 207.038 245.922 206.889C246.07 206.741 246.272 206.657 246.482 206.657H266.651C266.861 206.657 267.063 206.741 267.211 206.889C267.36 207.038 267.444 207.24 267.444 207.45C267.444 207.66 267.36 207.862 267.211 208.011C267.063 208.159 266.861 208.243 266.651 208.243Z" fill="#093F68"/>
<path d="M266.651 216.131H244.96C244.75 216.131 244.549 216.048 244.4 215.899C244.251 215.751 244.168 215.549 244.168 215.339C244.168 215.128 244.251 214.927 244.4 214.778C244.549 214.629 244.75 214.546 244.96 214.546H266.651C266.861 214.546 267.063 214.629 267.211 214.778C267.36 214.927 267.444 215.128 267.444 215.339C267.444 215.549 267.36 215.751 267.211 215.899C267.063 216.048 266.861 216.131 266.651 216.131Z" fill="#093F68"/>
<path d="M225.647 184.27C225.758 184.27 232.574 191.46 232.574 191.46L239.5 184.27H225.647Z" fill="#68E1FD"/>
<path d="M232.574 192.253C232.466 192.252 232.36 192.229 232.262 192.185C232.164 192.142 232.076 192.078 232.003 192C229.625 189.471 225.663 185.356 225.187 184.912C225.052 184.814 224.951 184.676 224.899 184.517C224.847 184.359 224.847 184.187 224.897 184.028C224.948 183.869 225.048 183.73 225.183 183.631C225.318 183.532 225.48 183.479 225.647 183.478H239.5C239.656 183.478 239.808 183.524 239.937 183.61C240.067 183.696 240.168 183.818 240.229 183.961C240.289 184.104 240.306 184.261 240.278 184.413C240.25 184.565 240.178 184.706 240.071 184.817L233.16 192.008C233.085 192.087 232.993 192.15 232.892 192.192C232.792 192.234 232.683 192.255 232.574 192.253ZM227.613 185.063C228.587 186.054 230.117 187.679 232.621 190.311L237.677 185.063H227.613Z" fill="#093F68"/>
<path d="M252.679 184.27C252.568 184.27 245.753 191.46 245.753 191.46L238.826 184.27H252.679Z" fill="#68E1FD"/>
<path d="M245.753 192.253C245.646 192.253 245.54 192.231 245.442 192.189C245.344 192.147 245.256 192.085 245.182 192.008L238.256 184.817C238.149 184.706 238.077 184.565 238.048 184.413C238.02 184.261 238.037 184.104 238.097 183.961C238.158 183.818 238.259 183.696 238.389 183.61C238.519 183.524 238.671 183.478 238.826 183.478H252.679C252.889 183.478 253.091 183.561 253.24 183.71C253.388 183.858 253.472 184.06 253.472 184.27C253.471 184.396 253.441 184.52 253.383 184.632C253.325 184.743 253.241 184.839 253.139 184.912C252.656 185.356 248.733 189.471 246.331 192C246.258 192.078 246.17 192.142 246.072 192.185C245.974 192.229 245.868 192.252 245.761 192.253H245.753ZM240.689 185.063L245.753 190.311C248.249 187.679 249.787 186.054 250.754 185.063H240.689Z" fill="#093F68"/>
<path d="M240.966 153.122C240.04 153.12 239.115 153.043 238.2 152.892C237.99 152.856 237.803 152.737 237.681 152.562C237.558 152.387 237.51 152.171 237.547 151.961C237.583 151.751 237.702 151.564 237.877 151.441C238.051 151.318 238.268 151.27 238.478 151.307C239.91 151.545 241.372 151.545 242.805 151.307C243.066 150.57 242.012 147.422 240.427 144.426C240.33 144.24 240.31 144.022 240.372 143.822C240.435 143.621 240.574 143.453 240.76 143.356C240.946 143.258 241.163 143.238 241.364 143.3C241.565 143.363 241.732 143.502 241.83 143.688C242.622 145.179 245.071 150.165 244.247 152.005C244.158 152.202 244.024 152.376 243.856 152.514C243.689 152.651 243.491 152.748 243.28 152.797C242.525 152.999 241.748 153.108 240.966 153.122V153.122Z" fill="#093F68"/>
<path d="M227.375 149.69C228.845 149.69 230.038 148.497 230.038 147.026C230.038 145.555 228.845 144.362 227.375 144.362C225.904 144.362 224.712 145.555 224.712 147.026C224.712 148.497 225.904 149.69 227.375 149.69Z" fill="#093F68"/>
<path d="M231.773 140.121H218.998C218.578 140.121 218.175 139.954 217.877 139.657C217.58 139.36 217.413 138.956 217.413 138.536C217.413 138.115 217.58 137.712 217.877 137.415C218.175 137.117 218.578 136.95 218.998 136.95H231.773C232.194 136.95 232.597 137.117 232.894 137.415C233.191 137.712 233.358 138.115 233.358 138.536C233.358 138.956 233.191 139.36 232.894 139.657C232.597 139.954 232.194 140.121 231.773 140.121Z" fill="#093F68"/>
<path d="M252.434 149.69C253.904 149.69 255.096 148.497 255.096 147.026C255.096 145.555 253.904 144.362 252.434 144.362C250.963 144.362 249.771 145.555 249.771 147.026C249.771 148.497 250.963 149.69 252.434 149.69Z" fill="#093F68"/>
<path d="M260.818 140.121H248.035C247.615 140.121 247.212 139.954 246.914 139.657C246.617 139.36 246.45 138.956 246.45 138.536C246.45 138.115 246.617 137.712 246.914 137.415C247.212 137.117 247.615 136.95 248.035 136.95H260.818C261.239 136.95 261.642 137.117 261.939 137.415C262.236 137.712 262.403 138.115 262.403 138.536C262.403 138.956 262.236 139.36 261.939 139.657C261.642 139.954 261.239 140.121 260.818 140.121Z" fill="#093F68"/>
<path d="M303.296 224.17C305.033 223.755 306.793 223.443 308.566 223.234C308.999 223.142 309.449 223.172 309.866 223.321C310.217 223.532 310.478 223.863 310.602 224.252C310.726 224.642 310.704 225.064 310.54 225.438C310.178 226.174 309.6 226.783 308.883 227.182C306.525 228.808 303.646 229.497 300.808 229.116C300.263 229.062 299.744 228.856 299.31 228.522C298.517 227.856 297.868 225.137 298.842 224.431C299.278 224.114 299.888 224.518 300.356 224.526C301.348 224.538 302.336 224.418 303.296 224.17V224.17Z" fill="#FFC9B0"/>
<path d="M302.385 230.036C301.812 230.035 301.239 229.99 300.673 229.901C299.982 229.82 299.328 229.546 298.787 229.108C297.943 228.12 297.51 226.846 297.574 225.549C297.56 225.213 297.624 224.878 297.762 224.571C297.899 224.264 298.107 223.994 298.367 223.781C298.616 223.629 298.897 223.539 299.188 223.516C299.478 223.494 299.77 223.542 300.039 223.654C300.142 223.687 300.249 223.711 300.356 223.725C301.283 223.731 302.207 223.62 303.106 223.392V223.392C304.874 222.969 306.666 222.649 308.471 222.433C309.045 222.325 309.637 222.377 310.183 222.584C310.722 222.876 311.132 223.359 311.333 223.939C311.534 224.518 311.511 225.152 311.269 225.715C310.85 226.61 310.163 227.353 309.303 227.84C307.258 229.226 304.855 229.989 302.385 230.036V230.036ZM299.215 225.105C299.215 225.105 299.151 225.255 299.128 225.628C299.105 226.447 299.344 227.252 299.809 227.927C300.135 228.156 300.514 228.298 300.911 228.339C303.553 228.673 306.226 228.027 308.424 226.524C309 226.206 309.471 225.726 309.779 225.144C309.865 224.958 309.885 224.748 309.838 224.548C309.79 224.349 309.678 224.171 309.517 224.042C309.228 223.972 308.927 223.972 308.638 224.042C306.896 224.248 305.168 224.558 303.463 224.97C302.427 225.232 301.361 225.357 300.293 225.342C300.045 225.332 299.799 225.287 299.564 225.208C299.442 225.172 299.317 225.145 299.191 225.128L299.215 225.105Z" fill="#093F68"/>
<path d="M290.085 205.642C291.77 205.642 293.136 204.276 293.136 202.59C293.136 200.905 291.77 199.538 290.085 199.538C288.4 199.538 287.034 200.905 287.034 202.59C287.034 204.276 288.4 205.642 290.085 205.642Z" fill="#093F68"/>
<path d="M290.093 206.444C289.795 206.441 289.497 206.406 289.206 206.341C288.716 206.224 288.253 206.013 287.846 205.717C287.438 205.422 287.092 205.049 286.828 204.62C286.559 204.193 286.378 203.716 286.296 203.218C286.215 202.719 286.234 202.21 286.353 201.719V201.719C286.496 201.103 286.79 200.531 287.207 200.056C287.625 199.58 288.153 199.215 288.745 198.993C289.338 198.771 289.976 198.698 290.603 198.782C291.23 198.865 291.827 199.102 292.34 199.472C292.854 199.841 293.268 200.332 293.547 200.9C293.825 201.468 293.959 202.096 293.937 202.729C293.914 203.361 293.736 203.978 293.418 204.525C293.1 205.073 292.652 205.533 292.114 205.865C291.508 206.244 290.808 206.444 290.093 206.444V206.444ZM287.882 202.076C287.814 202.366 287.803 202.666 287.852 202.96C287.901 203.254 288.009 203.536 288.167 203.788C288.483 204.296 288.987 204.659 289.57 204.795C290.152 204.932 290.765 204.832 291.274 204.517C291.654 204.282 291.957 203.939 292.142 203.532C292.328 203.125 292.388 202.672 292.316 202.231C292.244 201.789 292.042 201.379 291.737 201.052C291.431 200.725 291.036 200.497 290.6 200.395C290.017 200.259 289.404 200.36 288.895 200.675C288.385 200.989 288.021 201.493 287.882 202.076V202.076Z" fill="#093F68"/>
<path d="M280.472 207.085L296.692 210.885L298.185 204.509L281.965 200.71L280.472 207.085Z" fill="#093F68"/>
<path d="M296.703 211.66C296.642 211.668 296.581 211.668 296.52 211.66L280.298 207.855C280.095 207.808 279.918 207.682 279.807 207.506C279.752 207.417 279.715 207.318 279.699 207.214C279.682 207.111 279.687 207.005 279.711 206.903L281.201 200.561C281.225 200.46 281.268 200.364 281.328 200.279C281.389 200.194 281.465 200.122 281.554 200.067C281.642 200.012 281.74 199.974 281.843 199.957C281.946 199.94 282.051 199.943 282.152 199.967L298.375 203.772C298.476 203.795 298.572 203.838 298.657 203.899C298.742 203.959 298.814 204.036 298.869 204.124C298.924 204.213 298.962 204.311 298.979 204.414C298.996 204.517 298.993 204.622 298.969 204.723L297.471 211.065C297.427 211.236 297.328 211.387 297.189 211.494C297.05 211.602 296.879 211.66 296.703 211.66ZM281.431 206.475L296.108 209.916L297.242 205.088L282.564 201.647L281.431 206.475Z" fill="#093F68"/>
<path d="M264.121 244.663L294.646 251.814C295.895 252.107 297.144 251.331 297.437 250.082L306.499 211.372C306.791 210.123 306.016 208.874 304.767 208.581L274.242 201.43C272.993 201.138 271.744 201.913 271.452 203.162L262.389 241.872C262.097 243.121 262.872 244.371 264.121 244.663Z" fill="white"/>
<path d="M295.197 252.654C294.957 252.655 294.718 252.628 294.484 252.575L263.949 245.44C263.147 245.251 262.452 244.752 262.017 244.053C261.581 243.353 261.441 242.509 261.627 241.706L270.701 203.003C270.889 202.201 271.388 201.506 272.087 201.071C272.787 200.635 273.631 200.495 274.433 200.68L304.968 207.815C305.77 208.004 306.465 208.503 306.9 209.203C307.336 209.902 307.476 210.746 307.29 211.549L298.224 250.252C298.06 250.931 297.672 251.535 297.123 251.967C296.574 252.398 295.895 252.632 295.197 252.63V252.654ZM264.289 243.87L294.824 251.005C295.217 251.096 295.63 251.027 295.973 250.815C296.316 250.603 296.561 250.264 296.655 249.871L305.721 211.153C305.812 210.759 305.744 210.345 305.532 210.001C305.32 209.656 304.981 209.41 304.588 209.314L274.053 202.179C273.659 202.086 273.244 202.153 272.899 202.366C272.555 202.578 272.308 202.919 272.214 203.312L263.148 242.031C263.102 242.226 263.096 242.428 263.128 242.626C263.161 242.824 263.232 243.014 263.338 243.184C263.444 243.354 263.583 243.502 263.746 243.618C263.909 243.734 264.094 243.817 264.289 243.862V243.87Z" fill="#093F68"/>
<path d="M297.832 227.444L305.85 231.591C306.702 232.032 307.749 231.698 308.189 230.846L308.193 230.839C308.633 229.988 308.3 228.94 307.448 228.5L299.43 224.353C298.578 223.912 297.531 224.246 297.091 225.098L297.087 225.105C296.647 225.956 296.981 227.004 297.832 227.444Z" fill="#FFC9B0"/>
<path d="M306.625 232.581C306.222 232.583 305.825 232.488 305.468 232.303L297.456 228.157C296.895 227.829 296.481 227.299 296.3 226.675C296.118 226.051 296.183 225.381 296.481 224.804C296.779 224.226 297.287 223.785 297.9 223.571C298.513 223.357 299.185 223.387 299.778 223.654L307.79 227.8C308.283 228.066 308.675 228.487 308.903 229C309.131 229.512 309.182 230.085 309.049 230.63C308.915 231.174 308.605 231.659 308.166 232.008C307.727 232.357 307.185 232.55 306.625 232.557V232.581ZM298.62 224.962C298.521 224.963 298.423 224.976 298.327 225.002C298.089 225.081 297.891 225.249 297.772 225.469C297.66 225.693 297.64 225.953 297.717 226.191C297.751 226.311 297.81 226.423 297.891 226.519C297.972 226.615 298.072 226.692 298.185 226.746V226.746L306.189 230.892C306.412 231.006 306.671 231.028 306.91 230.952C307.149 230.877 307.348 230.71 307.465 230.488C307.524 230.378 307.56 230.257 307.571 230.133C307.583 230.009 307.569 229.883 307.531 229.764C307.494 229.645 307.433 229.535 307.352 229.44C307.271 229.345 307.172 229.267 307.061 229.211L299.048 225.065C298.916 224.997 298.769 224.961 298.62 224.962V224.962Z" fill="#093F68"/>
<path d="M296.229 230.535L304.247 234.682C305.098 235.123 306.145 234.789 306.586 233.937L306.589 233.93C307.03 233.078 306.696 232.031 305.845 231.591L297.826 227.444C296.975 227.003 295.928 227.337 295.488 228.189L295.484 228.196C295.044 229.047 295.377 230.095 296.229 230.535Z" fill="#FFC9B0"/>
<path d="M305.024 235.672C304.621 235.672 304.224 235.574 303.867 235.387L295.855 231.249C295.547 231.103 295.271 230.897 295.044 230.642C294.818 230.388 294.645 230.09 294.535 229.767C294.426 229.444 294.383 229.102 294.409 228.763C294.435 228.423 294.529 228.091 294.686 227.789C294.842 227.486 295.058 227.218 295.321 227.001C295.583 226.783 295.887 226.621 296.214 226.524C296.54 226.426 296.883 226.396 297.222 226.434C297.56 226.472 297.888 226.578 298.185 226.746L306.189 230.892C306.632 231.123 306.996 231.48 307.237 231.917C307.478 232.355 307.585 232.854 307.543 233.352C307.502 233.849 307.314 234.324 307.004 234.716C306.694 235.107 306.275 235.399 305.801 235.553C305.549 235.632 305.287 235.672 305.024 235.672V235.672ZM296.56 229.837L304.572 233.984C304.683 234.04 304.803 234.074 304.927 234.083C305.051 234.093 305.175 234.078 305.293 234.039C305.413 234.002 305.523 233.942 305.618 233.862C305.714 233.781 305.792 233.683 305.848 233.571C305.96 233.348 305.983 233.09 305.912 232.85C305.834 232.613 305.666 232.416 305.444 232.303L297.432 228.157C297.209 228.041 296.949 228.019 296.71 228.095C296.471 228.17 296.271 228.338 296.156 228.561C296.04 228.784 296.018 229.044 296.094 229.283C296.169 229.522 296.337 229.722 296.56 229.837V229.837Z" fill="#093F68"/>
<path d="M294.64 233.622L302.658 237.769C303.51 238.209 304.557 237.876 304.997 237.024L305.001 237.017C305.441 236.165 305.108 235.118 304.256 234.678L296.238 230.531C295.386 230.09 294.339 230.424 293.899 231.275L293.895 231.282C293.455 232.134 293.789 233.182 294.64 233.622Z" fill="#FFC9B0"/>
<path d="M303.431 238.764C303.028 238.764 302.631 238.666 302.274 238.479L294.262 234.341C293.701 234.013 293.287 233.482 293.106 232.858C292.924 232.234 292.989 231.565 293.287 230.987C293.585 230.41 294.093 229.968 294.706 229.755C295.32 229.541 295.992 229.57 296.584 229.838L304.596 233.984C305.09 234.249 305.481 234.671 305.709 235.183C305.937 235.695 305.988 236.269 305.855 236.813C305.722 237.358 305.411 237.843 304.972 238.192C304.534 238.54 303.991 238.733 303.431 238.74V238.764ZM294.975 232.929L302.995 237.091C303.105 237.15 303.226 237.186 303.35 237.198C303.474 237.209 303.599 237.196 303.718 237.158C303.837 237.12 303.947 237.059 304.042 236.979C304.137 236.898 304.215 236.799 304.271 236.687C304.33 236.578 304.366 236.457 304.377 236.333C304.388 236.209 304.374 236.084 304.334 235.966C304.255 235.728 304.088 235.529 303.867 235.411L295.855 231.273C295.744 231.215 295.624 231.18 295.5 231.169C295.376 231.158 295.251 231.171 295.133 231.209C295.014 231.247 294.904 231.307 294.809 231.388C294.714 231.468 294.636 231.566 294.579 231.677C294.464 231.9 294.443 232.159 294.518 232.398C294.594 232.637 294.761 232.837 294.983 232.953L294.975 232.929Z" fill="#093F68"/>
<path d="M293.036 236.713L301.055 240.86C301.906 241.3 302.953 240.967 303.394 240.115L303.397 240.108C303.837 239.256 303.504 238.209 302.653 237.768L294.634 233.621C293.783 233.181 292.736 233.515 292.296 234.366L292.292 234.373C291.852 235.225 292.185 236.273 293.036 236.713Z" fill="#FFC9B0"/>
<path d="M301.83 241.848C301.427 241.846 301.031 241.748 300.673 241.563L292.661 237.424C292.347 237.283 292.065 237.079 291.833 236.825C291.601 236.571 291.422 236.272 291.309 235.947C291.196 235.622 291.15 235.277 291.174 234.934C291.198 234.59 291.292 234.255 291.45 233.949C291.608 233.643 291.826 233.372 292.092 233.153C292.358 232.935 292.665 232.772 292.996 232.676C293.326 232.58 293.673 232.552 294.015 232.594C294.356 232.637 294.686 232.748 294.983 232.922L302.995 237.092C303.483 237.361 303.868 237.784 304.092 238.294C304.315 238.805 304.364 239.374 304.232 239.916C304.099 240.457 303.792 240.939 303.358 241.289C302.924 241.638 302.387 241.835 301.83 241.848V241.848ZM293.826 234.222C293.729 234.222 293.632 234.238 293.541 234.269C293.422 234.306 293.311 234.367 293.216 234.447C293.121 234.527 293.042 234.626 292.986 234.737C292.927 234.847 292.891 234.967 292.88 235.091C292.869 235.215 292.884 235.34 292.922 235.458C293.002 235.696 293.169 235.895 293.39 236.013L301.402 240.152C301.512 240.209 301.633 240.245 301.757 240.255C301.881 240.266 302.006 240.253 302.124 240.215C302.243 240.178 302.353 240.117 302.448 240.037C302.543 239.956 302.621 239.858 302.678 239.747C302.792 239.524 302.814 239.265 302.738 239.026C302.663 238.787 302.496 238.587 302.274 238.471L294.262 234.333C294.127 234.264 293.977 234.229 293.826 234.23V234.222Z" fill="#093F68"/>
<path d="M202.563 247.003L200.675 247.807C200.137 248.036 199.53 248.042 198.988 247.824C198.446 247.606 198.013 247.181 197.784 246.643L178.068 200.336C177.886 199.909 177.881 199.426 178.054 198.995C178.228 198.564 178.565 198.22 178.993 198.038L181.705 196.882C181.917 196.792 182.144 196.744 182.374 196.742C182.604 196.74 182.832 196.783 183.046 196.869C183.259 196.955 183.453 197.082 183.617 197.243C183.782 197.404 183.913 197.596 184.003 197.807L203.729 244.136C203.958 244.674 203.964 245.281 203.745 245.823C203.527 246.365 203.103 246.799 202.565 247.028L202.563 247.003Z" fill="#093F68"/>
<path d="M199.82 248.769C199.232 248.769 198.657 248.596 198.166 248.272C197.676 247.948 197.292 247.486 197.062 246.945L177.344 200.624C177.082 200.002 177.077 199.301 177.329 198.674C177.582 198.047 178.071 197.546 178.691 197.279L181.402 196.121C182.024 195.859 182.725 195.854 183.351 196.106C183.978 196.359 184.479 196.849 184.746 197.469L204.456 243.782C204.765 244.513 204.771 245.336 204.474 246.072C204.177 246.808 203.6 247.395 202.871 247.706L200.977 248.499C200.612 248.664 200.219 248.756 199.82 248.769V248.769ZM182.44 197.525C182.31 197.525 182.181 197.549 182.06 197.596L179.349 198.753C179.233 198.803 179.128 198.874 179.039 198.965C178.951 199.055 178.881 199.161 178.834 199.278C178.787 199.395 178.763 199.521 178.765 199.647C178.766 199.773 178.792 199.898 178.842 200.014L198.559 246.327C198.706 246.67 198.983 246.941 199.329 247.081C199.675 247.221 200.062 247.218 200.406 247.072L202.292 246.279C202.463 246.208 202.617 246.103 202.747 245.971C202.877 245.839 202.98 245.683 203.049 245.511C203.118 245.339 203.153 245.156 203.151 244.97C203.149 244.785 203.11 244.602 203.037 244.432L183.328 198.127C183.255 197.951 183.132 197.8 182.974 197.693C182.816 197.586 182.631 197.527 182.44 197.525V197.525Z" fill="#093F68"/>
<path d="M169.189 204.104L172.407 211.651C172.589 212.078 172.932 212.414 173.361 212.588C173.79 212.762 174.27 212.759 174.697 212.579L175.197 212.365C175.408 212.275 175.6 212.144 175.762 211.98C175.923 211.816 176.05 211.621 176.137 211.408C176.223 211.194 176.266 210.966 176.264 210.736C176.261 210.505 176.214 210.278 176.124 210.066C178.39 209.345 181.117 210.795 181.117 210.795L189.382 207.275C189.382 207.275 189.184 203.312 189.961 202.265C190.737 201.219 195.611 202.717 195.968 201.528C196.325 200.339 191.752 198.127 187.607 197.564C184.12 197.081 175.609 201.377 173.001 202.749L172.914 202.543C172.824 202.331 172.693 202.139 172.529 201.978C172.365 201.817 172.17 201.69 171.956 201.604C171.743 201.519 171.514 201.476 171.284 201.48C171.054 201.483 170.827 201.532 170.616 201.623L170.125 201.837C169.703 202.017 169.369 202.356 169.194 202.78C169.019 203.204 169.018 203.679 169.189 204.104V204.104Z" fill="#68E1FD"/>
<path d="M174.016 213.507C173.51 213.517 173.014 213.375 172.59 213.099C172.166 212.824 171.835 212.427 171.638 211.961L168.421 204.414C168.293 204.106 168.228 203.776 168.228 203.443C168.228 203.11 168.293 202.78 168.421 202.472C168.543 202.161 168.727 201.878 168.961 201.64C169.195 201.401 169.475 201.213 169.784 201.085L170.275 200.871C170.795 200.647 171.374 200.604 171.921 200.747C172.468 200.891 172.952 201.213 173.295 201.663C176.948 199.777 184.287 196.273 187.686 196.756C191.403 197.279 195.516 199.039 196.483 200.538C196.607 200.711 196.69 200.91 196.727 201.12C196.764 201.33 196.754 201.545 196.697 201.751C196.333 202.972 194.668 202.853 192.909 202.734C192.119 202.62 191.316 202.636 190.531 202.781C190.214 203.217 190.064 205.445 190.151 207.237C190.165 207.402 190.126 207.567 190.041 207.709C189.955 207.852 189.828 207.964 189.676 208.029L181.41 211.549C181.303 211.6 181.187 211.626 181.069 211.626C180.951 211.626 180.835 211.6 180.728 211.549C179.587 210.976 178.319 210.703 177.043 210.756C177.058 211.086 177.006 211.414 176.893 211.724C176.64 212.348 176.15 212.847 175.529 213.111L175.03 213.325C174.708 213.454 174.363 213.516 174.016 213.507V213.507ZM171.297 202.25C171.169 202.249 171.042 202.276 170.925 202.329L170.426 202.543C170.309 202.591 170.203 202.662 170.114 202.752C170.026 202.842 169.956 202.949 169.911 203.067C169.815 203.3 169.815 203.562 169.911 203.796L173.081 211.343C173.184 211.577 173.375 211.762 173.612 211.858C173.845 211.954 174.107 211.954 174.341 211.858L174.832 211.644C174.95 211.597 175.056 211.526 175.146 211.436C175.236 211.347 175.307 211.24 175.355 211.123C175.403 211.005 175.427 210.879 175.426 210.752C175.424 210.626 175.398 210.5 175.347 210.384C175.302 210.282 175.278 210.172 175.278 210.06C175.279 209.949 175.302 209.838 175.348 209.737C175.394 209.635 175.46 209.544 175.543 209.47C175.626 209.395 175.724 209.34 175.831 209.306C177.899 208.648 180.213 209.536 181.085 209.932L188.511 206.761C188.511 205.405 188.511 202.797 189.303 201.79C189.937 200.95 191.371 201.053 193.028 201.164C193.686 201.224 194.349 201.237 195.009 201.204C194.217 200.371 190.888 198.825 187.472 198.334C184.873 197.969 178.478 200.712 173.35 203.439C173.253 203.489 173.146 203.519 173.037 203.525C172.928 203.532 172.819 203.516 172.716 203.479C172.612 203.443 172.517 203.385 172.436 203.31C172.356 203.235 172.292 203.144 172.248 203.043L172.161 202.845C172.087 202.672 171.965 202.525 171.809 202.42C171.652 202.316 171.469 202.26 171.282 202.258L171.297 202.25Z" fill="#093F68"/>
<path d="M185.24 229.28L194.345 226.427C195.603 226.033 196.303 224.694 195.909 223.437L195.646 222.597C195.252 221.339 193.914 220.639 192.657 221.033L183.551 223.886C182.294 224.28 181.594 225.618 181.988 226.876L182.25 227.716C182.644 228.973 183.983 229.674 185.24 229.28Z" fill="#FFC9B0"/>
<path d="M184.54 230.171C183.863 230.173 183.202 229.957 182.656 229.556C182.11 229.156 181.706 228.59 181.505 227.943L181.235 227.103C180.987 226.301 181.068 225.433 181.458 224.69C181.849 223.947 182.518 223.389 183.32 223.139L192.425 220.285C193.227 220.037 194.095 220.117 194.838 220.508C195.58 220.899 196.138 221.569 196.388 222.37L196.657 223.21C196.905 224.012 196.825 224.88 196.434 225.623C196.044 226.366 195.374 226.924 194.573 227.174L185.467 230.028C185.167 230.12 184.854 230.168 184.54 230.171ZM193.369 221.704C193.209 221.704 193.051 221.731 192.901 221.783L183.795 224.629C183.595 224.691 183.408 224.791 183.247 224.925C183.086 225.059 182.952 225.224 182.855 225.41C182.758 225.596 182.698 225.799 182.68 226.008C182.662 226.217 182.685 226.427 182.749 226.627L183.019 227.467C183.08 227.667 183.18 227.853 183.314 228.014C183.447 228.174 183.611 228.307 183.796 228.404C183.98 228.502 184.183 228.561 184.391 228.58C184.599 228.599 184.808 228.576 185.008 228.514L194.114 225.66C194.314 225.597 194.5 225.494 194.661 225.358C194.821 225.222 194.953 225.055 195.049 224.867C195.146 224.682 195.206 224.48 195.225 224.272C195.244 224.064 195.222 223.854 195.16 223.654L194.89 222.806C194.787 222.484 194.584 222.204 194.31 222.005C194.036 221.807 193.706 221.702 193.369 221.704V221.704Z" fill="#093F68"/>
<path d="M186.86 234.455L195.966 231.602C197.223 231.208 197.923 229.869 197.529 228.612L197.266 227.772C196.873 226.514 195.534 225.814 194.277 226.208L185.171 229.061C183.914 229.454 183.214 230.793 183.608 232.051L183.871 232.891C184.265 234.148 185.603 234.848 186.86 234.455Z" fill="#FFC9B0"/>
<path d="M186.157 235.348C185.479 235.35 184.819 235.134 184.273 234.733C183.727 234.332 183.323 233.767 183.122 233.12L182.86 232.272C182.612 231.471 182.691 230.604 183.08 229.861C183.469 229.118 184.137 228.56 184.936 228.308L194.042 225.454C194.844 225.206 195.712 225.286 196.454 225.677C197.197 226.068 197.755 226.737 198.005 227.539L198.29 228.371C198.538 229.173 198.458 230.041 198.067 230.784C197.676 231.527 197.007 232.085 196.206 232.335L187.1 235.181C186.796 235.287 186.478 235.343 186.157 235.348ZM194.993 226.881C194.832 226.881 194.672 226.905 194.518 226.952L185.412 229.806C185.212 229.868 185.027 229.97 184.866 230.104C184.706 230.238 184.573 230.403 184.477 230.589C184.38 230.775 184.321 230.978 184.304 231.186C184.286 231.395 184.31 231.605 184.374 231.804L184.635 232.644C184.697 232.845 184.797 233.031 184.931 233.193C185.065 233.354 185.23 233.487 185.415 233.585C185.601 233.682 185.804 233.742 186.013 233.76C186.222 233.778 186.433 233.755 186.632 233.691L195.73 230.837C195.931 230.775 196.117 230.675 196.278 230.541C196.44 230.407 196.573 230.242 196.67 230.056C196.768 229.871 196.827 229.667 196.845 229.458C196.863 229.249 196.84 229.039 196.776 228.839L196.515 227.999C196.415 227.674 196.212 227.39 195.939 227.189C195.665 226.987 195.333 226.879 194.993 226.881V226.881Z" fill="#093F68"/>
<path d="M188.471 239.624L197.576 236.772C198.833 236.378 199.533 235.039 199.14 233.781L198.877 232.942C198.483 231.684 197.145 230.984 195.887 231.378L186.782 234.23C185.525 234.624 184.825 235.963 185.218 237.221L185.481 238.061C185.875 239.318 187.213 240.018 188.471 239.624Z" fill="#FFC9B0"/>
<path d="M187.774 240.516C187.096 240.518 186.436 240.303 185.89 239.902C185.343 239.501 184.94 238.936 184.738 238.289L184.477 237.448C184.229 236.646 184.309 235.779 184.7 235.035C185.09 234.292 185.76 233.735 186.561 233.485L195.659 230.639C196.461 230.391 197.328 230.471 198.071 230.862C198.814 231.252 199.371 231.922 199.621 232.724L199.883 233.564C200.131 234.366 200.051 235.234 199.66 235.977C199.269 236.72 198.6 237.278 197.799 237.528L188.701 240.382C188.4 240.47 188.087 240.516 187.774 240.516V240.516ZM196.618 232.05C196.453 232.048 196.29 232.075 196.134 232.129L187.037 234.975C186.835 235.036 186.647 235.138 186.487 235.274C186.326 235.41 186.195 235.579 186.101 235.768C186.004 235.953 185.944 236.155 185.925 236.363C185.906 236.571 185.928 236.781 185.99 236.981L186.252 237.821C186.313 238.022 186.414 238.208 186.548 238.369C186.682 238.531 186.846 238.664 187.032 238.761C187.218 238.859 187.421 238.918 187.63 238.936C187.839 238.955 188.049 238.931 188.249 238.867L197.355 236.013C197.556 235.95 197.742 235.847 197.902 235.711C198.063 235.575 198.195 235.408 198.29 235.221C198.481 234.843 198.518 234.405 198.393 234L198.132 233.16C198.032 232.836 197.831 232.553 197.558 232.352C197.286 232.151 196.956 232.042 196.618 232.042V232.05Z" fill="#093F68"/>
<path d="M190.091 244.799L199.196 241.947C200.454 241.553 201.154 240.214 200.76 238.956L200.497 238.117C200.103 236.859 198.765 236.159 197.508 236.553L188.402 239.405C187.145 239.799 186.445 241.138 186.839 242.396L187.102 243.235C187.495 244.493 188.834 245.193 190.091 244.799Z" fill="#FFC9B0"/>
<path d="M189.39 245.693C188.877 245.691 188.371 245.566 187.916 245.329C187.541 245.138 187.208 244.874 186.936 244.553C186.663 244.231 186.458 243.859 186.331 243.458L186.062 242.617C185.814 241.815 185.894 240.948 186.285 240.205C186.675 239.461 187.345 238.904 188.146 238.654L197.252 235.8C198.054 235.552 198.921 235.632 199.664 236.023C200.407 236.414 200.964 237.083 201.214 237.885L201.476 238.725C201.724 239.526 201.645 240.393 201.256 241.136C200.867 241.879 200.199 242.437 199.399 242.689L190.365 245.543C190.05 245.645 189.721 245.696 189.39 245.693V245.693ZM198.227 237.227C198.066 237.228 197.905 237.252 197.751 237.298L188.653 240.152C188.454 240.213 188.268 240.314 188.107 240.447C187.947 240.581 187.814 240.744 187.717 240.929C187.619 241.114 187.56 241.317 187.541 241.525C187.522 241.733 187.545 241.942 187.607 242.142L187.869 242.99C187.931 243.19 188.032 243.375 188.166 243.536C188.301 243.697 188.465 243.829 188.651 243.925C188.837 244.022 189.039 244.081 189.248 244.099C189.457 244.116 189.666 244.092 189.866 244.029L198.972 241.183C199.172 241.121 199.358 241.021 199.52 240.887C199.681 240.753 199.814 240.588 199.912 240.402C200.009 240.216 200.068 240.013 200.087 239.804C200.105 239.595 200.081 239.385 200.018 239.185L199.748 238.344C199.648 238.02 199.446 237.736 199.172 237.534C198.898 237.333 198.567 237.225 198.227 237.227V237.227Z" fill="#093F68"/>
<path d="M204.231 238.837L204.239 238.834C205.772 238.354 206.625 236.722 206.145 235.188L201.74 221.117C201.259 219.584 199.628 218.73 198.095 219.21L198.087 219.212C196.554 219.693 195.701 221.325 196.181 222.858L200.586 236.93C201.067 238.463 202.698 239.317 204.231 238.837Z" fill="#FFC9B0"/>
<path d="M203.378 239.756C202.589 239.755 201.821 239.502 201.185 239.034C200.549 238.567 200.079 237.909 199.843 237.155L195.437 223.084C195.144 222.146 195.235 221.13 195.691 220.26C196.146 219.389 196.929 218.736 197.866 218.442C198.803 218.149 199.819 218.24 200.689 218.696C201.559 219.152 202.213 219.934 202.506 220.872L206.912 234.944C207.203 235.881 207.11 236.896 206.654 237.765C206.198 238.635 205.416 239.288 204.479 239.581C204.124 239.697 203.752 239.756 203.378 239.756V239.756ZM198.972 219.857C198.757 219.858 198.543 219.89 198.338 219.953C197.802 220.122 197.356 220.497 197.096 220.994C196.837 221.492 196.784 222.072 196.951 222.608L201.357 236.68C201.439 236.946 201.573 237.193 201.751 237.407C201.93 237.622 202.148 237.798 202.395 237.927C202.642 238.056 202.912 238.135 203.19 238.159C203.467 238.183 203.747 238.152 204.012 238.067V238.067C204.277 237.984 204.524 237.849 204.737 237.671C204.951 237.493 205.127 237.274 205.256 237.027C205.385 236.78 205.464 236.511 205.488 236.233C205.513 235.956 205.482 235.677 205.399 235.411L200.992 221.34C200.857 220.91 200.588 220.534 200.225 220.267C199.861 220.001 199.422 219.857 198.972 219.857V219.857Z" fill="#093F68"/>
<path d="M383.181 220.699C375.345 220.699 368.466 219.093 362.546 215.88C356.625 212.667 352.054 208.151 348.832 202.333C345.611 196.428 344 189.697 344 182.142C344 171.114 346.264 161.387 350.791 152.964C355.406 144.454 361.805 137.854 369.99 133.164C378.261 128.388 387.752 126 398.461 126C406.471 126 413.437 127.607 419.358 130.82C425.365 133.946 429.98 138.418 433.201 144.236C436.423 149.968 438.034 156.611 438.034 164.166C438.034 175.108 435.726 184.878 431.112 193.475C426.584 202.072 420.141 208.759 411.783 213.535C403.511 218.311 393.977 220.699 383.181 220.699ZM387.621 193.735C392.149 193.735 396.067 192.563 399.375 190.218C402.771 187.787 405.34 184.617 407.081 180.709C408.822 176.715 409.693 172.416 409.693 167.814C409.693 163.037 408.387 159.347 405.775 156.741C403.25 154.049 399.593 152.703 394.804 152.703C390.277 152.703 386.315 153.876 382.919 156.22C379.524 158.565 376.912 161.735 375.083 165.729C373.342 169.637 372.471 173.892 372.471 178.495C372.471 183.271 373.734 187.005 376.259 189.697C378.871 192.389 382.658 193.735 387.621 193.735Z" fill="#5ECCE6"/>
<path d="M480.491 159.868C484.235 155.613 488.414 152.226 493.028 149.707C497.73 147.102 502.388 145.8 507.003 145.8L501.648 176.671H493.42C487.935 176.671 483.712 177.627 480.752 179.537C477.879 181.448 476.007 184.834 475.136 189.697L469.781 219.788H440.788L453.848 146.321H482.841L480.491 159.868Z" fill="#5ECCE6"/>
<path d="M539.105 195.95C542.413 195.95 544.938 194.039 546.679 190.218H577.371C574.498 198.295 570.101 204.894 564.18 210.018C558.347 215.142 551.599 218.442 543.937 219.918L543.153 224.216C546.723 224.216 549.988 225.215 552.948 227.212C555.996 229.21 557.519 232.379 557.519 236.721C557.519 238.198 557.432 239.327 557.258 240.108C556.213 245.753 553.514 249.791 549.161 252.222C544.807 254.741 540.019 256 534.795 256H512.2L514.812 241.281H534.403C535.448 241.281 536.318 241.063 537.015 240.629C537.711 240.282 538.103 239.804 538.19 239.196V238.806C538.19 237.764 537.189 237.242 535.186 237.242H524.085L527.22 220.048C519.819 218.659 514.029 215.489 509.85 210.539C505.67 205.589 503.581 199.206 503.581 191.391C503.581 188.786 503.842 186.007 504.364 183.054C505.757 175.412 508.544 168.769 512.723 163.124C516.902 157.393 522.083 153.007 528.265 149.968C534.533 146.929 541.325 145.409 548.638 145.409C558.216 145.409 565.791 148.101 571.363 153.485C577.023 158.869 579.896 166.337 579.983 175.89H549.292C548.682 172.069 546.767 170.158 543.545 170.158C541.194 170.158 539.148 171.244 537.407 173.415C535.752 175.586 534.533 178.799 533.75 183.054C533.402 185.486 533.227 187.092 533.227 187.874C533.227 190.566 533.75 192.607 534.795 193.996C535.839 195.299 537.276 195.95 539.105 195.95Z" fill="#5ECCE6"/>
<path d="M583.95 183.054C585.343 175.325 587.868 168.639 591.525 162.994C595.182 157.263 599.579 152.921 604.716 149.968C609.853 146.929 615.295 145.409 621.041 145.409C625.83 145.409 629.792 146.407 632.926 148.405C636.06 150.315 638.237 152.964 639.456 156.351L641.285 146.321H670.148L657.087 219.788H628.224L630.053 209.758C627.615 213.144 624.48 215.836 620.649 217.834C616.818 219.744 612.508 220.699 607.72 220.699C600.319 220.699 594.355 218.224 589.827 213.275C585.3 208.325 583.036 201.464 583.036 192.693C583.036 189.393 583.341 186.18 583.95 183.054ZM634.754 183.054C634.929 182.273 635.016 181.23 635.016 179.928C635.016 176.975 634.232 174.717 632.665 173.154C631.098 171.504 628.964 170.679 626.265 170.679C623.131 170.679 620.345 171.765 617.907 173.936C615.556 176.107 614.032 179.146 613.336 183.054C613.161 183.836 613.074 184.878 613.074 186.18C613.074 189.133 613.858 191.434 615.425 193.084C616.992 194.647 619.126 195.429 621.825 195.429C624.959 195.429 627.702 194.343 630.053 192.172C632.491 190.001 634.058 186.962 634.754 183.054Z" fill="#5ECCE6"/>
<path d="M731.882 205.85H701.06L694.007 219.788H663.577L713.728 127.563H747.162L764.532 219.788H733.971L731.882 205.85ZM728.747 184.096L724.96 158.435L712.03 184.096H728.747Z" fill="#5ECCE6"/>
<path d="M811.345 156.351C813.783 152.964 816.874 150.315 820.618 148.405C824.449 146.407 828.759 145.409 833.547 145.409C840.948 145.409 846.912 147.884 851.44 152.834C855.967 157.784 858.231 164.644 858.231 173.415C858.231 176.715 857.926 179.928 857.317 183.054C855.924 190.783 853.399 197.513 849.742 203.244C846.085 208.889 841.688 213.231 836.551 216.271C831.414 219.223 825.973 220.699 820.226 220.699C815.437 220.699 811.476 219.744 808.341 217.834C805.294 215.836 803.161 213.144 801.942 209.758L793.975 254.958H764.981L784.18 146.321H813.173L811.345 156.351ZM827.932 183.054C828.106 182.273 828.193 181.23 828.193 179.928C828.193 176.975 827.409 174.717 825.842 173.154C824.275 171.504 822.141 170.679 819.442 170.679C816.308 170.679 813.522 171.765 811.084 173.936C808.733 176.107 807.209 179.146 806.513 183.054C806.339 183.836 806.252 184.878 806.252 186.18C806.252 189.133 807.035 191.434 808.602 193.084C810.17 194.647 812.303 195.429 815.002 195.429C818.136 195.429 820.879 194.343 823.23 192.172C825.668 190.001 827.235 186.962 827.932 183.054Z" fill="#5ECCE6"/>
<path d="M900.114 156.351C902.552 152.964 905.643 150.315 909.387 148.405C913.218 146.407 917.527 145.409 922.316 145.409C929.717 145.409 935.681 147.884 940.209 152.834C944.736 157.784 947 164.644 947 173.415C947 176.715 946.695 179.928 946.086 183.054C944.693 190.783 942.168 197.513 938.511 203.244C934.854 208.889 930.457 213.231 925.32 216.271C920.183 219.223 914.741 220.699 908.995 220.699C904.206 220.699 900.244 219.744 897.11 217.834C894.063 215.836 891.929 213.144 890.71 209.758L882.744 254.958H853.75L872.949 146.321H901.942L900.114 156.351ZM916.7 183.054C916.874 182.273 916.961 181.23 916.961 179.928C916.961 176.975 916.178 174.717 914.611 173.154C913.043 171.504 910.91 170.679 908.211 170.679C905.077 170.679 902.29 171.765 899.853 173.936C897.502 176.107 895.978 179.146 895.281 183.054C895.107 183.836 895.02 184.878 895.02 186.18C895.02 189.133 895.804 191.434 897.371 193.084C898.938 194.647 901.072 195.429 903.771 195.429C906.905 195.429 909.648 194.343 911.999 192.172C914.436 190.001 916.004 186.962 916.7 183.054Z" fill="#5ECCE6"/>
</svg>
