<svg width="666" height="178" viewBox="0 0 666 178" fill="none" xmlns="http://www.w3.org/2000/svg">
<path d="M195.308 14.8533H26.0314C24.0834 14.8533 22.5049 16.4323 22.5049 18.3798V65.401C22.5049 67.3486 24.0834 68.9275 26.0314 68.9275C27.9794 68.9275 29.5579 67.3486 29.5579 65.401V21.9068H191.781V123.003H29.5579V79.5079C29.5579 77.5604 27.9794 75.9814 26.0314 75.9814C24.0834 75.9814 22.5049 77.5604 22.5049 79.5079V126.529C22.5049 128.477 24.0834 130.056 26.0314 130.056H195.308C197.256 130.056 198.834 128.477 198.834 126.529V18.3803C198.834 16.4323 197.256 14.8533 195.308 14.8533Z" fill="#33323C"/>
<path d="M217.473 141.258H212.771V18.2661C212.771 8.19383 204.861 0 195.138 0H25.8617C16.1386 0 8.2288 8.19383 8.2288 18.2661V130.298C8.2288 132.316 9.80731 133.951 11.7553 133.951C13.7033 133.951 15.2818 132.316 15.2818 130.298V18.2661C15.2818 12.2226 20.0281 7.30626 25.8617 7.30626H195.138C200.972 7.30626 205.718 12.2226 205.718 18.2661V141.258H3.5265C1.57851 141.258 0 142.894 0 144.911V159.524C0 169.596 7.90982 177.79 17.633 177.79H203.367C213.09 177.79 221 169.596 221 159.524V144.911C221 142.893 219.421 141.258 217.473 141.258ZM99.9201 148.564H121.08V155.871H99.9201V148.564ZM213.947 159.524C213.947 165.567 209.201 170.484 203.367 170.484H17.633C11.7993 170.484 7.05301 165.567 7.05301 159.524V148.564H92.8666V159.524C92.8666 161.541 94.4451 163.177 96.3931 163.177H124.606C126.554 163.177 128.133 161.541 128.133 159.524V148.564H213.947V159.524Z" fill="#33323C"/>
<path d="M143.446 90.4318L143.556 78.4715L77.7744 77.8676L77.6646 89.8279L87.3824 89.9171C87.9215 92.0899 88.763 94.1763 89.8822 96.1151L82.9568 102.929L91.3263 111.454L98.2665 104.655C100.184 105.809 102.255 106.689 104.418 107.268L104.328 116.986L116.289 117.096L116.378 107.378C118.549 106.84 120.631 105.993 122.561 104.863L129.39 111.803L137.915 103.434L131.101 96.4786C132.266 94.5697 133.151 92.5033 133.729 90.3426L143.446 90.4318Z" fill="#ADA8A8"/>
<path d="M141.638 66.2465C141.713 58.8218 139.27 51.5908 134.708 45.7327C130.145 39.8746 123.733 35.7351 116.516 33.9894L116.524 33.1223C116.531 32.3293 116.223 31.5658 115.668 30.9999C115.112 30.434 114.354 30.112 113.561 30.1047L104.591 30.0224C103.798 30.0151 103.035 30.3232 102.469 30.8788C101.903 31.4344 101.581 32.192 101.573 32.985L101.566 33.8522C94.3202 35.4698 87.8357 39.4921 83.1675 45.2644C78.4992 51.0367 75.9222 58.2192 75.8558 65.6426C74.2698 65.628 72.7429 66.2441 71.6111 67.3553C70.4794 68.4665 69.8353 69.9818 69.8208 71.5679L69.7933 74.5579C69.7861 75.351 70.0941 76.1144 70.6497 76.6803C71.2053 77.2462 71.9629 77.5682 72.756 77.5755L144.518 78.2343C145.311 78.2415 146.074 77.9335 146.64 77.3779C147.206 76.8223 147.528 76.0647 147.535 75.2716L147.563 72.2816C147.577 70.6955 146.961 69.1687 145.85 68.0369C144.739 66.9051 143.224 66.2611 141.638 66.2465Z" fill="#6F10BA"/>
<path d="M95.095 84.748C95.0754 86.7767 95.5147 88.7835 96.3801 90.6184C97.2456 92.4534 98.5148 94.0688 100.093 95.344C101.671 96.6192 103.516 97.521 105.492 97.9821C107.468 98.4432 109.522 98.4516 111.502 98.0066C113.481 97.5616 115.334 96.6748 116.922 95.4126C118.511 94.1503 119.793 92.5452 120.673 90.7174C121.554 88.8896 122.009 86.8864 122.006 84.8576C122.003 82.8289 121.541 80.8271 120.655 79.002L96.5552 78.7807C95.6126 80.6298 95.1127 82.6726 95.095 84.748Z" fill="#DFDAE3"/>
<path d="M130.005 62.4846L118.044 62.3748C117.648 62.3712 117.266 62.5252 116.983 62.803C116.7 63.0808 116.539 63.4597 116.536 63.8562L116.522 65.3512C116.518 65.7477 116.357 66.1265 116.074 66.4043C115.791 66.6821 115.41 66.8362 115.013 66.8325L106.043 66.7502C105.646 66.7465 105.268 66.5855 104.99 66.3026C104.712 66.0196 104.558 65.6379 104.562 65.2414L104.575 63.7464C104.579 63.3499 104.425 62.9681 104.147 62.6852C103.869 62.4022 103.491 62.2412 103.094 62.2376L91.1337 62.1278C90.7372 62.1242 90.3555 62.2782 90.0725 62.556C89.7896 62.8338 89.6286 63.2126 89.6249 63.6091C89.6213 64.0056 89.7753 64.3873 90.0531 64.6703C90.3309 64.9532 90.7098 65.1142 91.1063 65.1179L101.572 65.214C101.561 66.4035 102.023 67.5486 102.856 68.3975C103.689 69.2463 104.826 69.7293 106.015 69.7403L114.986 69.8226C116.175 69.8335 117.32 69.3715 118.169 68.5381C119.018 67.7047 119.501 66.5682 119.512 65.3787L129.977 65.4747C130.374 65.4784 130.756 65.3243 131.038 65.0465C131.321 64.7687 131.482 64.3899 131.486 63.9934C131.49 63.5969 131.336 63.2152 131.058 62.9322C130.78 62.6493 130.401 62.4883 130.005 62.4846Z" fill="#33323C"/>
<path d="M144.044 64.1724C143.852 56.8444 141.31 49.7721 136.793 43.9986C132.276 38.225 126.023 34.0557 118.957 32.1055C118.896 30.9704 118.406 29.9009 117.586 29.1139C116.766 28.3269 115.677 27.8815 114.54 27.868L105.57 27.7856C104.431 27.7781 103.332 28.2049 102.497 28.9792C101.662 29.7535 101.153 30.8171 101.075 31.9533C93.9683 33.7605 87.6331 37.8088 83.0079 43.4985C78.3826 49.1882 75.7132 56.2165 75.3952 63.5421C73.6938 63.861 72.1556 64.7597 71.0426 66.0854C69.9296 67.411 69.3105 69.0816 69.2909 70.8124L69.2635 73.8025C69.2526 74.992 69.7146 76.1372 70.548 76.986C71.3814 77.8349 72.5179 78.3179 73.7074 78.3288L75.2025 78.3425L75.1064 88.8078C75.1028 89.2043 75.2568 89.586 75.5346 89.869C75.8124 90.1519 76.1912 90.3129 76.5877 90.3166L85.1752 90.3954C85.6305 91.9282 86.2296 93.4145 86.9646 94.8345L80.8449 100.856C80.562 101.134 80.4011 101.513 80.3975 101.909C80.3938 102.306 80.5478 102.687 80.8255 102.97L89.1949 111.495C89.4727 111.778 89.8515 111.939 90.2479 111.942C90.6443 111.946 91.026 111.792 91.3089 111.514L97.4419 105.506C98.8486 106.268 100.324 106.894 101.849 107.378L101.77 115.966C101.766 116.362 101.92 116.744 102.198 117.027C102.476 117.31 102.855 117.471 103.251 117.474L115.212 117.584C115.608 117.588 115.99 117.434 116.273 117.156C116.556 116.878 116.717 116.499 116.72 116.103L116.799 107.515C118.33 107.058 119.814 106.455 121.23 105.714L127.26 111.846C127.538 112.129 127.917 112.289 128.313 112.293C128.71 112.297 129.091 112.143 129.374 111.865L137.899 103.496C138.181 103.218 138.342 102.839 138.346 102.443C138.35 102.046 138.196 101.665 137.918 101.382L131.9 95.2396C132.667 93.8373 133.297 92.3645 133.782 90.8416L142.37 90.9205C142.766 90.9241 143.148 90.7701 143.431 90.4923C143.714 90.2145 143.875 89.8357 143.878 89.4391L143.974 78.9739L145.469 78.9876C146.659 78.9985 147.804 78.5364 148.653 77.703C149.502 76.8696 149.985 75.7332 149.996 74.5436L150.023 71.5536C150.035 69.8214 149.445 68.1388 148.355 66.7927C147.265 65.4466 145.741 64.5205 144.044 64.1724ZM140.902 87.9167L132.679 87.8412C132.348 87.8382 132.025 87.9454 131.761 88.146C131.497 88.3465 131.307 88.6291 131.222 88.9492C130.68 90.9716 129.852 92.9061 128.762 94.6934C128.588 94.9775 128.514 95.3113 128.552 95.6421C128.589 95.9729 128.736 96.2816 128.969 96.5194L134.737 102.404L128.345 108.68L122.568 102.805C122.334 102.567 122.028 102.414 121.697 102.371C121.367 102.327 121.032 102.395 120.744 102.564C118.938 103.621 116.989 104.414 114.957 104.918C114.635 104.997 114.348 105.182 114.142 105.443C113.936 105.703 113.822 106.025 113.82 106.358L113.744 114.58L104.774 114.498L104.849 106.275C104.852 105.944 104.745 105.621 104.545 105.357C104.344 105.093 104.061 104.904 103.741 104.818C101.714 104.277 99.7728 103.454 97.9745 102.373C97.6909 102.202 97.3586 102.13 97.0298 102.168C96.7009 102.207 96.3941 102.353 96.1575 102.585L90.284 108.338L84.0076 101.945L89.8678 96.1784C90.1037 95.9461 90.2557 95.642 90.3001 95.3139C90.3446 94.9858 90.2788 94.6522 90.1132 94.3655C89.0652 92.5478 88.2779 90.5917 87.7743 88.5548C87.6951 88.2316 87.5103 87.9441 87.2492 87.7377C86.9881 87.5314 86.6657 87.4181 86.3329 87.4157L78.1102 87.3402L78.1926 78.37L95.3511 78.5275C94.6121 80.7628 94.4115 83.1411 94.7655 85.4686C95.1195 87.7961 96.0181 90.0072 97.3883 91.9217C98.7585 93.8363 100.561 95.4002 102.65 96.4861C104.739 97.572 107.055 98.1493 109.409 98.1709C111.763 98.1925 114.09 97.6579 116.198 96.6105C118.307 95.5631 120.138 94.0325 121.543 92.1435C122.948 90.2544 123.887 88.0602 124.284 85.7396C124.68 83.4189 124.524 81.0374 123.826 78.7889L140.984 78.9464L140.902 87.9167ZM120.652 78.7598C121.381 80.5832 121.651 82.5583 121.436 84.5105C121.221 86.4627 120.529 88.332 119.42 89.9533C118.312 91.5746 116.821 92.898 115.08 93.8066C113.339 94.7152 111.401 95.1811 109.437 95.163C107.473 95.145 105.544 94.6436 103.82 93.7032C102.095 92.7628 100.629 91.4123 99.5507 89.7709C98.4722 88.1295 97.8144 86.2478 97.6356 84.292C97.4567 82.3362 97.7622 80.3664 98.5251 78.5566L120.652 78.7598ZM147.006 74.5162C147.002 74.9127 146.841 75.2915 146.558 75.5693C146.275 75.8471 145.893 76.0011 145.497 75.9975L73.7349 75.3387C73.3384 75.3351 72.9596 75.1741 72.6818 74.8911C72.404 74.6082 72.2499 74.2265 72.2536 73.8299L72.281 70.8399C72.2933 69.9156 72.5909 69.0177 73.1331 68.269C73.6752 67.5203 74.4355 66.9574 75.3098 66.6573L75.2711 70.8673C75.2675 71.2638 75.4215 71.6455 75.6993 71.9285C75.9771 72.2114 76.3559 72.3724 76.7524 72.3761C77.1489 72.3797 77.5306 72.2257 77.8136 71.9479C78.0965 71.6701 78.2575 71.2913 78.2612 70.8948L78.3161 64.9146C78.3488 58.1491 80.5811 51.5777 84.6762 46.1923C88.7713 40.8068 94.507 36.8994 101.018 35.0597L100.838 54.6552C100.834 55.0517 100.988 55.4334 101.266 55.7164C101.544 55.9993 101.923 56.1603 102.319 56.164C102.716 56.1676 103.097 56.0136 103.38 55.7358C103.663 55.458 103.824 55.0791 103.828 54.6826L104.034 32.257C104.037 31.8605 104.198 31.4817 104.481 31.2039C104.764 30.9261 105.146 30.7721 105.542 30.7757L114.513 30.8581C114.909 30.8617 115.288 31.0227 115.566 31.3057C115.844 31.5886 115.998 31.9703 115.994 32.3668L115.788 54.7924C115.785 55.1889 115.939 55.5707 116.216 55.8536C116.494 56.1366 116.873 56.2976 117.269 56.3012C117.666 56.3048 118.048 56.1508 118.331 55.873C118.614 55.5952 118.775 55.2164 118.778 54.8199L118.958 35.205C125.423 37.188 131.074 41.2089 135.066 46.6673C139.058 52.1258 141.177 58.729 141.108 65.491L141.053 71.4712C141.049 71.8677 141.203 72.2494 141.481 72.5324C141.759 72.8153 142.138 72.9763 142.534 72.98C142.931 72.9836 143.312 72.8296 143.595 72.5518C143.878 72.274 144.039 71.8952 144.043 71.4987L144.082 67.2886C144.95 67.6047 145.7 68.1815 146.228 68.94C146.757 69.6985 147.038 70.6017 147.033 71.5261L147.006 74.5162Z" fill="#33323C"/>
<path d="M123.827 54.0806C124.224 54.0842 124.605 53.9302 124.888 53.6524C125.171 53.3746 125.332 52.9957 125.336 52.5992L125.418 43.629C125.422 43.2325 125.268 42.8508 124.99 42.5678C124.712 42.2849 124.333 42.1239 123.937 42.1202C123.54 42.1166 123.159 42.2706 122.876 42.5484C122.593 42.8262 122.432 43.205 122.428 43.6015L122.346 52.5718C122.342 52.9683 122.496 53.35 122.774 53.633C123.052 53.9159 123.431 54.0769 123.827 54.0806Z" fill="#33323C"/>
<path d="M96.0166 53.8335C96.4131 53.8372 96.7948 53.6832 97.0778 53.4054C97.3607 53.1276 97.5217 52.7487 97.5254 52.3522L97.6077 43.382C97.6113 42.9855 97.4573 42.6038 97.1795 42.3208C96.9017 42.0379 96.5229 41.8769 96.1264 41.8732C95.7299 41.8696 95.3482 42.0236 95.0652 42.3014C94.7823 42.5792 94.6213 42.958 94.6176 43.3545L94.5353 52.3248C94.5316 52.7213 94.6857 53.103 94.9635 53.386C95.2413 53.6689 95.6201 53.8299 96.0166 53.8335Z" fill="#33323C"/>
<path d="M88.537 54.9399L87.0419 54.9261C86.6454 54.9225 86.2637 55.0765 85.9807 55.3543C85.6978 55.6321 85.5368 56.0109 85.5332 56.4075C85.5295 56.804 85.6835 57.1857 85.9613 57.4686C86.2391 57.7516 86.618 57.9126 87.0145 57.9162L88.5095 57.9299C88.906 57.9336 89.2877 57.7796 89.5707 57.5018C89.8536 57.224 90.0146 56.8451 90.0183 56.4486C90.0219 56.0521 89.8679 55.6704 89.5901 55.3875C89.3123 55.1045 88.9335 54.9435 88.537 54.9399Z" fill="#33323C"/>
<path d="M81.4961 80.1181L84.4862 80.1456L84.4587 83.1356L81.4686 83.1082L81.4961 80.1181Z" fill="#33323C"/>
<path d="M88.5586 100.703L90.6923 98.6084L92.7872 100.742L90.6535 102.837L88.5586 100.703Z" fill="#33323C"/>
<path d="M126.612 101.056L128.746 98.9616L130.841 101.095L128.707 103.19L126.612 101.056Z" fill="#33323C"/>
<path d="M260.144 114.574C254.841 114.574 249.949 113.344 245.466 110.884C241.038 108.369 237.512 104.898 234.888 100.47C232.319 95.9873 231.034 90.958 231.034 85.382C231.034 79.806 232.319 74.804 234.888 70.376C237.512 65.948 241.038 62.504 245.466 60.044C249.949 57.5293 254.841 56.272 260.144 56.272C265.501 56.272 270.394 57.5293 274.822 60.044C279.305 62.504 282.831 65.948 285.4 70.376C287.969 74.804 289.254 79.806 289.254 85.382C289.254 90.958 287.969 95.9873 285.4 100.47C282.831 104.898 279.305 108.369 274.822 110.884C270.394 113.344 265.501 114.574 260.144 114.574ZM260.144 106.456C263.916 106.456 267.278 105.609 270.23 103.914C273.182 102.165 275.478 99.7047 277.118 96.534C278.813 93.3087 279.66 89.5913 279.66 85.382C279.66 81.1727 278.813 77.4827 277.118 74.312C275.478 71.1413 273.182 68.7087 270.23 67.014C267.278 65.3193 263.916 64.472 260.144 64.472C256.372 64.472 253.01 65.3193 250.058 67.014C247.106 68.7087 244.783 71.1413 243.088 74.312C241.448 77.4827 240.628 81.1727 240.628 85.382C240.628 89.5913 241.448 93.3087 243.088 96.534C244.783 99.7047 247.106 102.165 250.058 103.914C253.01 105.609 256.372 106.456 260.144 106.456ZM468.204 57.01V64.636H444.014V81.446H462.874V89.072H444.014V114H434.666V57.01H468.204Z" fill="#6F10BA"/>
<path d="M307.801 75.378C309.167 73.082 310.971 71.3053 313.213 70.048C315.509 68.736 318.215 68.08 321.331 68.08V77.756H318.953C315.29 77.756 312.502 78.6853 310.589 80.544C308.73 82.4027 307.801 85.628 307.801 90.22V114H298.453V68.818H307.801V75.378ZM348.947 106.866C354.359 106.866 357.94 104.488 359.689 99.732H369.775C368.573 103.887 366.413 107.303 363.297 109.982C360.236 112.606 356.382 114.137 351.735 114.574V117.936C354.906 117.936 357.475 118.674 359.443 120.15C361.411 121.681 362.395 123.813 362.395 126.546C362.395 129.279 361.411 131.439 359.443 133.024C357.475 134.664 354.988 135.484 351.981 135.484H341.157V129.58H350.095C351.626 129.58 352.774 129.361 353.539 128.924C354.305 128.487 354.687 127.694 354.687 126.546C354.687 125.398 354.305 124.605 353.539 124.168C352.774 123.731 351.626 123.512 350.095 123.512H345.585V114.492C341.868 114.055 338.588 112.825 335.745 110.802C332.903 108.725 330.689 106.046 329.103 102.766C327.573 99.4313 326.807 95.632 326.807 91.368C326.807 86.7213 327.737 82.6487 329.595 79.15C331.509 75.5967 334.133 72.8633 337.467 70.95C340.802 69.0367 344.629 68.08 348.947 68.08C354.414 68.08 358.924 69.392 362.477 72.016C366.085 74.5853 368.518 78.2753 369.775 83.086H359.689C358.869 80.8447 357.557 79.0953 355.753 77.838C353.949 76.5807 351.681 75.952 348.947 75.952C345.121 75.952 342.059 77.3187 339.763 80.052C337.522 82.7307 336.401 86.5027 336.401 91.368C336.401 96.2333 337.522 100.033 339.763 102.766C342.059 105.499 345.121 106.866 348.947 106.866ZM375.975 91.204C375.975 86.6667 376.905 82.6487 378.763 79.15C380.677 75.6513 383.246 72.9453 386.471 71.032C389.751 69.064 393.359 68.08 397.295 68.08C400.849 68.08 403.937 68.7907 406.561 70.212C409.24 71.5787 411.372 73.3007 412.957 75.378V68.818H422.387V114H412.957V107.276C411.372 109.408 409.213 111.185 406.479 112.606C403.746 114.027 400.63 114.738 397.131 114.738C393.25 114.738 389.697 113.754 386.471 111.786C383.246 109.763 380.677 106.975 378.763 103.422C376.905 99.814 375.975 95.7413 375.975 91.204ZM412.957 91.368C412.957 88.252 412.301 85.546 410.989 83.25C409.732 80.954 408.065 79.2047 405.987 78.002C403.91 76.7993 401.669 76.198 399.263 76.198C396.858 76.198 394.617 76.7993 392.539 78.002C390.462 79.15 388.767 80.872 387.455 83.168C386.198 85.4093 385.569 88.088 385.569 91.204C385.569 94.32 386.198 97.0533 387.455 99.404C388.767 101.755 390.462 103.559 392.539 104.816C394.671 106.019 396.913 106.62 399.263 106.62C401.669 106.62 403.91 106.019 405.987 104.816C408.065 103.613 409.732 101.864 410.989 99.568C412.301 97.2173 412.957 94.484 412.957 91.368ZM473.751 91.204C473.751 86.6667 474.68 82.6487 476.539 79.15C478.452 75.6513 481.021 72.9453 484.247 71.032C487.527 69.064 491.135 68.08 495.071 68.08C498.624 68.08 501.713 68.7907 504.337 70.212C507.015 71.5787 509.147 73.3007 510.733 75.378V68.818H520.163V114H510.733V107.276C509.147 109.408 506.988 111.185 504.255 112.606C501.521 114.027 498.405 114.738 494.907 114.738C491.025 114.738 487.472 113.754 484.247 111.786C481.021 109.763 478.452 106.975 476.539 103.422C474.68 99.814 473.751 95.7413 473.751 91.204ZM510.733 91.368C510.733 88.252 510.077 85.546 508.765 83.25C507.507 80.954 505.84 79.2047 503.763 78.002C501.685 76.7993 499.444 76.198 497.039 76.198C494.633 76.198 492.392 76.7993 490.315 78.002C488.237 79.15 486.543 80.872 485.231 83.168C483.973 85.4093 483.345 88.088 483.345 91.204C483.345 94.32 483.973 97.0533 485.231 99.404C486.543 101.755 488.237 103.559 490.315 104.816C492.447 106.019 494.688 106.62 497.039 106.62C499.444 106.62 501.685 106.019 503.763 104.816C505.84 103.613 507.507 101.864 508.765 99.568C510.077 97.2173 510.733 94.484 510.733 91.368ZM506.961 56.682L488.839 65.62V58.732L506.961 48.728V56.682ZM529.325 91.368C529.325 86.7213 530.254 82.6487 532.113 79.15C534.026 75.5967 536.65 72.8633 539.985 70.95C543.32 69.0367 547.146 68.08 551.465 68.08C556.932 68.08 561.442 69.392 564.995 72.016C568.603 74.5853 571.036 78.2753 572.293 83.086H562.207C561.387 80.8447 560.075 79.0953 558.271 77.838C556.467 76.5807 554.198 75.952 551.465 75.952C547.638 75.952 544.577 77.3187 542.281 80.052C540.04 82.7307 538.919 86.5027 538.919 91.368C538.919 96.2333 540.04 100.033 542.281 102.766C544.577 105.499 547.638 106.866 551.465 106.866C556.877 106.866 560.458 104.488 562.207 99.732H572.293C570.981 104.324 568.521 107.987 564.913 110.72C561.305 113.399 556.822 114.738 551.465 114.738C547.146 114.738 543.32 113.781 539.985 111.868C536.65 109.9 534.026 107.167 532.113 103.668C530.254 100.115 529.325 96.0147 529.325 91.368ZM586.365 62.832C584.67 62.832 583.249 62.258 582.101 61.11C580.953 59.962 580.379 58.5407 580.379 56.846C580.379 55.1513 580.953 53.73 582.101 52.582C583.249 51.434 584.67 50.86 586.365 50.86C588.005 50.86 589.399 51.434 590.547 52.582C591.695 53.73 592.269 55.1513 592.269 56.846C592.269 58.5407 591.695 59.962 590.547 61.11C589.399 62.258 588.005 62.832 586.365 62.832ZM590.957 68.818V114H581.609V68.818H590.957ZM612.578 53.32V114H603.23V53.32H612.578Z" fill="#33323C"/>
</svg>
