<svg width="720" height="443" viewBox="0 0 720 443" fill="none" xmlns="http://www.w3.org/2000/svg">
<g clip-path="url(#clip0)">
<path opacity="0.1" d="M719.999 284.528C720.012 296.531 718.56 308.49 715.678 320.141C714.708 324.067 713.581 327.911 712.297 331.674C710.726 336.318 708.906 340.874 706.844 345.322C705.805 347.572 704.707 349.778 703.549 351.938C703.568 364.246 701.035 376.425 696.11 387.704C687.207 407.94 671.331 424.303 651.375 433.809C638.898 439.764 625.263 442.896 611.439 442.982H136.68C115.557 443.027 94.7986 437.476 76.5157 426.894L76.2345 426.735C73.6304 425.21 71.0914 423.596 68.6177 421.892C63.0519 418.046 57.8228 413.733 52.9868 409.002C46.4413 402.603 40.6735 395.455 35.8032 387.704C24.3645 369.535 18.3049 348.498 18.3261 327.026C6.74203 306.695 -0.0128174 282.339 -0.0128174 256.168C-0.0128174 223.148 10.7216 193.026 28.3576 170.224C32.0343 165.46 36.0618 160.978 40.4063 156.814C44.6929 152.694 49.3003 148.922 54.1849 145.533C58.093 142.818 62.1773 140.367 66.4109 138.195C68.1776 137.296 69.9503 136.446 71.7537 135.657C73.3369 134.954 74.9385 134.3 76.5585 133.682C78.5024 132.944 80.4708 132.265 82.4636 131.646C84.4565 131.026 86.4228 130.484 88.3627 130.019C91.2154 129.322 94.117 128.756 97.0676 128.319C99.5127 127.959 101.958 127.708 104.403 127.518C106.347 127.372 108.309 127.292 110.284 127.268H111.354C113.53 127.268 115.694 127.353 117.839 127.5C118.066 127.048 118.31 126.589 118.536 126.143C119.392 124.51 120.279 122.883 121.171 121.293C121.169 121.279 121.169 121.265 121.171 121.251C121.324 120.969 121.477 120.694 121.636 120.425C122.357 119.123 123.109 117.832 123.879 116.554C124.234 115.943 124.582 115.368 124.943 114.793C125.019 114.651 125.103 114.512 125.193 114.378C125.56 113.766 125.933 113.155 126.312 112.543C128.199 109.527 130.161 106.563 132.199 103.652L132.719 102.906C133.036 102.454 133.33 102.013 133.684 101.561C134.528 100.381 135.396 99.1945 136.27 98.0327C136.881 97.2011 137.493 96.3756 138.153 95.5868C139.742 93.5485 141.372 91.5103 143.043 89.472C144.714 87.4337 146.45 85.4219 148.252 83.4367C148.496 83.1615 148.741 82.8924 148.997 82.6234L151.608 79.7739C151.736 79.6394 151.846 79.5171 151.968 79.3948C152.28 79.0585 152.58 78.7221 152.916 78.3981C154.316 76.9122 155.752 75.4568 157.195 74.0076C164.537 66.6927 172.359 59.8759 180.608 53.6025C180.932 53.3457 181.262 53.1011 181.586 52.8565C183.138 51.6885 184.716 50.5328 186.293 49.3955C194.968 43.1703 204.036 37.5125 213.441 32.4574C214.088 32.0844 214.749 31.7359 215.415 31.3935C223.846 26.9316 232.518 22.9386 241.389 19.4329C246.224 17.519 251.17 15.7212 256.146 14.0763C259.459 12.9879 262.785 11.9545 266.153 10.9822C271.418 9.46574 276.72 8.10621 282.059 6.90363C297.787 3.37346 313.788 1.19274 329.887 0.385237C334.777 0.136568 339.723 0.00815813 344.723 5.04045e-06C368.851 -0.0319473 392.885 3.00914 416.245 9.04993C416.487 9.41504 416.817 9.71269 417.205 9.91486C417.593 10.117 418.027 10.2171 418.464 10.2056H420.518C421.41 10.4502 422.297 10.6948 423.189 10.9516C428.173 12.3866 433.086 13.954 437.928 15.6539L439.15 16.0942C451.1 20.3446 462.727 25.4536 473.939 31.3812C484.047 36.7118 493.779 42.7265 503.068 49.3833C504.498 50.4105 505.908 51.446 507.298 52.4896C508.985 51.4093 510.701 50.3739 512.445 49.3833C519.181 45.5458 526.335 42.4949 533.767 40.2905C549.305 35.6911 565.746 35.0479 581.595 38.4194C601.921 42.7303 620.321 53.4313 635.182 68.651C641.233 74.8783 646.619 81.7189 651.253 89.0623C651.589 89.5882 651.925 90.1202 652.249 90.6583C656.232 97.1577 659.655 103.984 662.482 111.063C662.586 111.326 662.69 111.571 662.782 111.828C665.392 118.457 667.496 125.274 669.078 132.221C669.152 132.575 669.237 132.924 669.311 133.279C670.79 140.001 671.795 146.82 672.318 153.684C672.318 153.928 672.318 154.179 672.367 154.436C672.624 157.986 672.754 161.574 672.758 165.198C672.758 168.439 672.648 171.655 672.447 174.847C672.447 175.196 672.398 175.556 672.367 175.917C672.312 176.84 672.233 177.752 672.153 178.681C676.822 182.448 681.191 186.572 685.223 191.015C687.004 192.959 688.727 194.977 690.394 197.068C695.471 203.433 699.933 210.266 703.721 217.473C714.058 236.992 719.999 259.953 719.999 284.528Z" fill="#6F10BA"/>
<path opacity="0.1" d="M650.923 431.547C650.923 435.723 636.539 439.637 611.439 443H136.68C115.557 443.045 94.7992 437.494 76.5163 426.912L76.2351 426.753C83.4484 424.124 96.4691 421.672 114.191 419.458L114.985 419.36C122.932 418.388 131.814 417.465 141.522 416.59C141.766 416.59 142.017 416.553 142.261 416.523C149.964 415.838 158.157 415.196 166.842 414.597C167.117 414.597 167.386 414.548 167.661 414.536C171.011 414.295 174.43 414.067 177.919 413.851L179.263 413.765C204.663 412.187 233.535 410.928 264.845 410.096H264.882C269.267 409.974 273.699 409.866 278.178 409.772C283.158 409.654 288.199 409.55 293.301 409.46C297.195 409.375 301.138 409.313 305.093 409.252H305.185C323.029 408.983 341.465 408.849 360.318 408.849C406.936 408.849 450.998 409.699 490.042 411.227H490.152C496.155 411.46 502.048 411.717 507.794 411.98L512.684 412.212C519.168 412.522 525.485 412.854 531.634 413.209C603.951 417.324 650.923 424.007 650.923 431.547Z" fill="#6F10BA"/>
<g opacity="0.2">
<path opacity="0.2" d="M415.854 406.042C415.835 406.702 415.759 407.358 415.628 408.005C411.374 407.328 407.094 406.717 402.791 406.17C402.791 405.999 402.791 405.822 402.791 405.645C402.831 403.811 403.358 402.021 404.319 400.459C405.578 398.466 407.492 397.218 409.601 397.286C411.71 397.353 413.538 398.716 414.668 400.777C415.524 402.396 415.933 404.213 415.854 406.042V406.042Z" fill="#3F3D56"/>
<path opacity="0.2" d="M416.206 395.593C416.355 390.864 413.549 386.938 409.938 386.824C406.328 386.71 403.28 390.451 403.13 395.18C402.981 399.909 405.787 403.835 409.397 403.949C413.008 404.063 416.056 400.322 416.206 395.593Z" fill="#3F3D56"/>
<path opacity="0.2" d="M416.539 385.124C416.688 380.395 413.883 376.469 410.272 376.355C406.661 376.241 403.613 379.982 403.464 384.711C403.314 389.44 406.12 393.366 409.731 393.48C413.342 393.594 416.39 389.853 416.539 385.124Z" fill="#3F3D56"/>
<path opacity="0.2" d="M416.866 374.655C417.016 369.926 414.21 366 410.599 365.886C406.989 365.772 403.941 369.513 403.791 374.242C403.642 378.971 406.448 382.897 410.058 383.011C413.669 383.125 416.717 379.384 416.866 374.655Z" fill="#3F3D56"/>
<path opacity="0.2" d="M417.194 364.186C417.343 359.457 414.537 355.531 410.927 355.417C407.316 355.303 404.268 359.044 404.119 363.773C403.969 368.502 406.775 372.428 410.386 372.542C413.996 372.656 417.044 368.915 417.194 364.186Z" fill="#3F3D56"/>
<path opacity="0.2" d="M388.407 291.548C387.546 290.382 386.77 289.156 386.084 287.879L403.359 285.599L384.764 285.152C383.104 281.215 382.265 276.98 382.298 272.707C382.33 268.434 383.234 264.213 384.953 260.302L409.478 274.029L387.013 256.394C389.28 252.728 392.277 249.568 395.819 247.112C399.361 244.657 403.371 242.958 407.599 242.122C411.827 241.287 416.181 241.332 420.391 242.255C424.6 243.179 428.574 244.96 432.064 247.489C435.554 250.017 438.486 253.239 440.675 256.952C442.865 260.664 444.266 264.789 444.79 269.068C445.315 273.346 444.952 277.687 443.724 281.819C442.496 285.951 440.429 289.786 437.653 293.083C438.992 294.897 440.13 296.851 441.046 298.91L418.373 309.795L442.415 302.561C443.929 307.558 444.173 312.855 443.125 317.97C442.077 323.085 439.77 327.859 436.412 331.857C439.903 336.594 441.99 342.219 442.436 348.087C442.881 353.955 441.667 359.83 438.931 365.041C436.196 370.251 432.05 374.586 426.967 377.55C421.885 380.514 416.071 381.988 410.19 381.802C404.31 381.617 398.601 379.78 393.715 376.501C388.829 373.223 384.964 368.635 382.562 363.263C380.16 357.89 379.318 351.95 380.133 346.122C380.947 340.294 383.384 334.812 387.166 330.304C382.996 324.642 380.849 317.743 381.071 310.714C381.293 303.686 383.87 296.935 388.389 291.548H388.407Z" fill="#6F10BA"/>
<path opacity="0.1" d="M443.748 312.693C443.534 319.726 440.949 326.48 436.412 331.857C439.903 336.594 441.99 342.219 442.436 348.087C442.881 353.955 441.667 359.83 438.931 365.041C436.196 370.251 432.05 374.586 426.967 377.55C421.885 380.514 416.071 381.988 410.19 381.802C404.31 381.617 398.601 379.78 393.715 376.501C388.829 373.223 384.964 368.635 382.562 363.263C380.16 357.89 379.318 351.95 380.133 346.122C380.947 340.294 383.384 334.812 387.166 330.304C383.15 324.843 443.858 309.177 443.748 312.693Z" fill="black"/>
</g>
<g opacity="0.2">
<path opacity="0.2" d="M322.937 406.042C322.917 406.702 322.842 407.358 322.711 408.005C318.456 407.328 314.177 406.717 309.874 406.17C309.874 405.999 309.874 405.822 309.874 405.645C309.913 403.811 310.441 402.021 311.402 400.459C312.661 398.466 314.574 397.218 316.683 397.286C318.792 397.353 320.62 398.716 321.751 400.777C322.606 402.396 323.016 404.213 322.937 406.042V406.042Z" fill="#3F3D56"/>
<path opacity="0.2" d="M323.281 395.595C323.431 390.867 320.625 386.94 317.014 386.826C313.404 386.712 310.356 390.453 310.206 395.182C310.057 399.911 312.863 403.837 316.473 403.951C320.084 404.066 323.132 400.324 323.281 395.595Z" fill="#3F3D56"/>
<path opacity="0.2" d="M323.615 385.127C323.764 380.398 320.959 376.472 317.348 376.357C313.737 376.243 310.689 379.984 310.54 384.713C310.39 389.442 313.196 393.368 316.807 393.483C320.417 393.597 323.466 389.856 323.615 385.127Z" fill="#3F3D56"/>
<path opacity="0.2" d="M323.942 374.658C324.092 369.929 321.286 366.003 317.675 365.889C314.065 365.774 311.017 369.516 310.867 374.245C310.718 378.973 313.524 382.9 317.134 383.014C320.745 383.128 323.793 379.387 323.942 374.658Z" fill="#3F3D56"/>
<path opacity="0.2" d="M324.27 364.189C324.419 359.46 321.613 355.534 318.003 355.42C314.392 355.306 311.344 359.047 311.195 363.776C311.045 368.505 313.851 372.431 317.462 372.545C321.072 372.659 324.12 368.918 324.27 364.189Z" fill="#3F3D56"/>
<path opacity="0.2" d="M295.49 291.548C294.629 290.382 293.853 289.156 293.167 287.879L310.442 285.599L291.846 285.152C290.187 281.215 289.348 276.98 289.38 272.707C289.413 268.434 290.317 264.213 292.036 260.302L316.561 274.029L294.096 256.394C296.362 252.728 299.36 249.568 302.902 247.112C306.444 244.657 310.454 242.958 314.681 242.122C318.909 241.287 323.264 241.332 327.473 242.255C331.683 243.179 335.657 244.96 339.147 247.489C342.637 250.017 345.568 253.239 347.758 256.952C349.948 260.664 351.348 264.789 351.873 269.068C352.398 273.346 352.034 277.687 350.806 281.819C349.578 285.951 347.512 289.786 344.736 293.083C346.075 294.897 347.212 296.851 348.129 298.91L325.456 309.795L349.498 302.561C351.012 307.558 351.256 312.855 350.208 317.97C349.16 323.085 346.852 327.859 343.495 331.857C346.986 336.594 349.073 342.219 349.518 348.087C349.964 353.955 348.749 359.83 346.014 365.041C343.278 370.251 339.132 374.586 334.05 377.55C328.967 380.514 323.153 381.988 317.273 381.802C311.393 381.617 305.683 379.78 300.797 376.501C295.912 373.223 292.047 368.635 289.645 363.263C287.243 357.89 286.401 351.95 287.215 346.122C288.029 340.294 290.467 334.812 294.249 330.304C290.079 324.642 287.932 317.743 288.154 310.714C288.375 303.686 290.953 296.935 295.471 291.548H295.49Z" fill="#6F10BA"/>
<path opacity="0.1" d="M350.831 312.693C350.617 319.726 348.031 326.48 343.495 331.857C346.986 336.594 349.073 342.219 349.518 348.087C349.964 353.955 348.749 359.83 346.014 365.041C343.279 370.251 339.132 374.586 334.05 377.55C328.967 380.514 323.154 381.988 317.273 381.802C311.393 381.617 305.683 379.78 300.797 376.501C295.912 373.223 292.047 368.635 289.645 363.263C287.243 357.89 286.401 351.95 287.215 346.122C288.029 340.294 290.467 334.812 294.249 330.304C290.233 324.843 350.941 309.177 350.831 312.693Z" fill="black"/>
</g>
<g opacity="0.2">
<path opacity="0.2" d="M576.748 412.732C576.702 413.981 576.552 415.225 576.302 416.449C568.111 415.141 559.86 413.971 551.55 412.94C551.55 412.609 551.55 412.273 551.55 411.931C551.628 408.399 552.645 404.953 554.497 401.945C556.942 398.111 560.61 395.708 564.663 395.83C568.716 395.953 572.243 398.588 574.444 402.557C576.103 405.683 576.899 409.195 576.748 412.732V412.732Z" fill="#3F3D56"/>
<path opacity="0.2" d="M577.413 392.6C577.701 383.493 572.296 375.932 565.342 375.712C558.387 375.492 552.516 382.697 552.228 391.803C551.941 400.91 557.345 408.471 564.3 408.691C571.255 408.911 577.126 401.706 577.413 392.6Z" fill="#3F3D56"/>
<path opacity="0.2" d="M578.049 372.445C578.336 363.338 572.932 355.777 565.977 355.557C559.022 355.337 553.151 362.542 552.864 371.649C552.576 380.756 557.981 388.316 564.935 388.536C571.89 388.756 577.761 381.552 578.049 372.445Z" fill="#3F3D56"/>
<path opacity="0.2" d="M578.69 352.29C578.978 343.183 573.573 335.623 566.619 335.403C559.664 335.183 553.793 342.387 553.505 351.494C553.217 360.601 558.622 368.162 565.577 368.382C572.531 368.602 578.402 361.397 578.69 352.29Z" fill="#3F3D56"/>
<path opacity="0.2" d="M578.609 331.218C578.882 322.107 573.463 314.551 566.505 314.343C559.547 314.134 553.684 321.351 553.411 330.462C553.138 339.574 558.557 347.129 565.515 347.338C572.473 347.547 578.336 340.33 578.609 331.218Z" fill="#3F3D56"/>
<path opacity="0.2" d="M523.901 192.317C522.252 190.072 520.759 187.717 519.433 185.267L552.688 180.876L516.896 180.014C513.699 172.435 512.081 164.282 512.142 156.056C512.203 147.83 513.942 139.703 517.251 132.172L564.473 158.594L521.23 124.644C525.602 117.603 531.378 111.537 538.196 106.826C545.015 102.115 552.731 98.8585 560.862 97.2607C568.994 95.663 577.367 95.7576 585.461 97.5388C593.554 99.3199 601.194 102.749 607.905 107.614C614.615 112.478 620.252 118.672 624.465 125.811C628.677 132.95 631.374 140.88 632.388 149.107C633.402 157.335 632.711 165.683 630.359 173.631C628.006 181.58 624.042 188.958 618.714 195.307C621.289 198.801 623.48 202.563 625.249 206.528L581.596 227.496L627.877 213.554C630.794 223.163 631.269 233.348 629.259 243.187C627.249 253.026 622.818 262.208 616.367 269.902C623.085 279.022 627.102 289.849 627.959 301.146C628.816 312.442 626.477 323.752 621.211 333.782C615.945 343.811 607.963 352.156 598.179 357.862C588.395 363.568 577.203 366.404 565.883 366.047C554.563 365.69 543.572 362.154 534.166 355.843C524.761 349.532 517.321 340.701 512.697 330.359C508.072 320.018 506.451 308.583 508.017 297.363C509.583 286.143 514.275 275.59 521.554 266.912C513.53 256.013 509.4 242.734 509.825 229.205C510.251 215.677 515.208 202.683 523.901 192.311V192.317Z" fill="#6F10BA"/>
<path opacity="0.1" d="M630.451 233.017C630.05 246.549 625.096 259.549 616.391 269.914C623.11 279.034 627.127 289.862 627.984 301.158C628.84 312.455 626.502 323.764 621.235 333.794C615.969 343.823 607.987 352.168 598.203 357.874C588.419 363.58 577.227 366.417 565.907 366.06C554.587 365.703 543.596 362.166 534.191 355.855C524.785 349.544 517.345 340.713 512.721 330.372C508.097 320.03 506.475 308.595 508.041 297.375C509.608 286.155 514.299 275.603 521.579 266.924C513.791 256.4 630.665 226.248 630.451 233.017Z" fill="black"/>
</g>
<path d="M96.4752 413.808L102.888 413.79H111.929L123.36 228.034L236.567 39.0676L231.646 33.7844V20.4052L109.215 223.655L96.4752 413.808Z" fill="#F1C0C0"/>
<path opacity="0.1" d="M103.572 413.79H111.929L123.36 228.034L236.567 39.0676L231.646 33.7844L114.875 225.203L103.572 413.79Z" fill="black"/>
<path d="M77.58 415.355L370.912 437.809L371.162 437.827L655.043 420.363L655.257 420.351V408.36L342.456 402.618L81.4862 402.367H79.5789L79.3711 403.712L77.58 415.355Z" fill="#F1C0C0"/>
<path opacity="0.1" d="M77.58 415.355L370.912 437.809L371.162 437.827L655.043 420.363L655.257 420.131V408.61H655.007L370.912 418.1L81.4862 402.367H81.4434L80.9299 402.703L79.3711 403.712L77.58 415.355Z" fill="black"/>
<path opacity="0.1" d="M77.58 415.355L370.912 437.809V418.1L80.9299 402.703L79.3711 403.712L77.58 415.355Z" fill="black"/>
<path d="M231.609 33.5336L360.929 172.377L356.931 416.602L367.916 417.929L368.1 417.954H379.085L380.399 182.864L622.553 263.775L626.636 407.84L635.476 408.831L638.471 409.167L631.539 253.783L378.4 164.886L239.599 20.5458H231.609V33.5336Z" fill="#F1C0C0"/>
<path opacity="0.1" d="M379.403 178.369L380.399 182.864L622.553 263.775L626.636 407.84L635.476 408.83L628.544 260.778L379.403 178.369Z" fill="black"/>
<path opacity="0.1" d="M231.609 33.5336L360.929 172.377L356.931 416.602L367.916 417.929L370.912 164.385L231.609 20.5458V33.5336Z" fill="black"/>
<path d="M379.873 276.384L468.689 293.878L468.72 293.884L624.277 324.538L631.398 321.682L631.374 321.181L630.909 311.244L379.965 260.522L379.873 276.384Z" fill="#F1C0C0"/>
<path opacity="0.1" d="M468.72 293.884L624.277 324.538L631.398 321.682L631.374 321.181L468.72 293.884Z" fill="black"/>
<path d="M474.667 214.361L477.07 346.649L478.311 414.517L489.247 414.15L496.13 413.918L493.991 216.275L489.247 214.697L488.208 214.361H474.667Z" fill="#F1C0C0"/>
<path opacity="0.1" d="M474.765 214.33V214.361L477.07 346.649L478.311 414.517L489.247 414.15V214.33H474.765Z" fill="black"/>
<path d="M303.363 248.145C304.005 248.494 304.618 248.893 305.197 249.338C305.882 249.937 306.497 250.612 307.031 251.349C309.653 254.743 312.074 258.687 311.817 262.968C311.823 263.59 311.705 264.208 311.471 264.785C311.237 265.362 310.892 265.888 310.454 266.331C309.372 267.254 307.82 267.297 306.401 267.297C304.861 267.297 303.241 267.297 301.908 266.502C300.576 265.707 299.463 264.16 297.886 264.197C297.663 264.234 297.436 264.234 297.214 264.197C296.669 264.019 296.559 263.304 296.205 262.851C295.594 262.038 294.304 262.24 293.344 262.595C292.384 262.949 291.321 263.481 290.373 263.072C289.823 262.781 289.373 262.332 289.083 261.781C286.815 258.112 286.332 253.704 285.904 249.442C285.642 246.849 283.637 238.007 289.169 240.019C291.614 240.899 293.9 242.66 296.125 243.951L303.363 248.145Z" fill="#3F3D56"/>
<path d="M297.898 249.02C298.392 249.375 298.991 249.555 299.599 249.531C300.208 249.506 300.79 249.279 301.254 248.885C302.164 248.062 302.745 246.937 302.886 245.718C303.498 245.528 303.809 246.329 304.201 246.818C304.885 247.65 306.279 247.638 306.903 248.524C307.337 249.136 307.239 249.986 307.544 250.677C307.942 251.57 308.926 252.034 309.598 252.756C310.233 253.544 310.692 254.46 310.943 255.44L311.946 258.449C312.425 259.7 312.734 261.01 312.863 262.344C312.926 263.011 312.856 263.683 312.656 264.323C312.457 264.962 312.132 265.555 311.701 266.068C310.356 267.517 308.15 267.67 306.2 267.627C305.548 267.641 304.898 267.565 304.268 267.401C302.538 266.863 301.431 265.12 300.973 263.365C300.515 261.61 300.563 259.77 300.294 257.972C300.004 256.206 299.49 254.484 298.766 252.848C298.228 251.576 296.749 249.68 296.773 248.329C297.214 248.329 297.531 248.732 297.898 249.02Z" fill="#3F3D56"/>
<path d="M300.093 242.825C299.807 241.957 299.64 241.054 299.598 240.141C299.598 238.307 300.435 236.582 301.279 234.943L294.291 235.891C293.448 236.007 292.506 236.179 292.03 236.882C291.849 237.23 291.754 237.617 291.754 238.01C291.754 238.403 291.849 238.79 292.03 239.138C292.38 239.836 292.659 240.567 292.861 241.321C292.877 241.981 292.953 242.638 293.087 243.284C293.305 243.759 293.61 244.188 293.986 244.55C295.985 246.763 297.482 249.374 298.974 251.961C298.931 251.888 303.186 248.592 303.015 247.515C302.917 246.904 301.688 246.17 301.297 245.583C300.757 244.731 300.35 243.801 300.093 242.825V242.825Z" fill="#BE6F72"/>
<path d="M360 218.935V224.958L256.892 245.076L251.543 248.316H233.088V244.923L334.393 220.439L360 218.935Z" fill="#F1C0C0"/>
<path opacity="0.1" d="M360 224.958L256.892 245.076L251.543 248.317H233.088L335.145 226.468L360 224.958Z" fill="black"/>
<path d="M277.218 389.917C276.069 388.526 274.483 387.564 272.718 387.189C270.954 386.813 269.114 387.047 267.498 387.85C267.153 388.013 266.848 388.252 266.606 388.548C265.994 389.404 266.386 390.584 266.441 391.642C266.581 394.222 264.527 396.32 262.681 398.123C261.691 399.09 260.682 400.123 260.236 401.438C259.79 402.752 260.12 404.422 261.318 405.106C261.841 405.369 262.41 405.527 262.993 405.571C264.947 405.952 266.95 406.008 268.923 405.736C270.873 405.363 272.786 404.257 273.63 402.459C273.792 401.971 274.062 401.526 274.418 401.156C275.494 400.306 277.145 401.303 278.367 400.698C279.376 400.196 279.419 399.407 279.431 398.368C279.468 395.494 279.04 392.241 277.218 389.917Z" fill="#6F10BA"/>
<path d="M291.889 389.807C292.641 391.788 292.745 393.947 292.843 396.063C292.898 397.286 292.934 398.594 292.274 399.628C291.614 400.661 290.324 401.205 289.089 401.462C286.54 401.988 283.588 401.493 281.943 399.469C280.684 397.922 280.421 395.8 280.653 393.794C280.849 392.149 281.265 390.223 280.085 389.055C279.779 388.743 279.382 388.523 279.101 388.187C278.489 387.441 278.587 386.316 278.917 385.398C279.347 384.521 279.67 383.595 279.877 382.641C279.926 382.188 288.154 382.959 288.912 383.332C289.945 383.839 289.786 384.689 290.098 385.716C290.532 387.147 291.363 388.437 291.889 389.807Z" fill="#6F10BA"/>
<path d="M293.399 301.962C295.013 303.007 295.636 305.062 295.887 306.97C296.578 312.198 295.367 317.481 295.276 322.758C295.19 330.151 297.33 337.678 295.502 344.839C294.408 349.119 295.337 354.011 294.31 358.334C294.004 359.618 293.442 360.829 293.148 362.113C292.537 364.896 293.179 367.806 294.041 370.527C294.316 371.261 294.491 372.028 294.561 372.808C294.519 374.009 294.214 375.186 293.668 376.257L290 384.934C289.591 385.906 287.977 386.065 286.944 386.193C285 386.426 282.83 386.591 281.283 385.386C279.737 384.182 279.364 382.164 279.125 380.28C278.668 376.665 278.464 373.022 278.514 369.378C278.581 368.427 278.497 367.471 278.263 366.547C277.927 365.501 277.187 364.596 276.986 363.489C276.729 362.058 277.456 360.652 277.725 359.209C277.91 357.891 277.889 356.552 277.664 355.24C277.426 353.283 277.151 351.327 276.839 349.382C276.399 346.661 277.028 343.977 277.45 341.25C277.848 338.687 277.34 336.076 276.839 333.533C276.882 335.597 276.625 337.657 276.075 339.647C275.751 340.62 275.286 341.549 275.005 342.54C273.752 346.985 276.423 351.651 276.044 356.255C275.867 358.408 275.023 360.536 275.262 362.657C275.427 364.211 276.148 365.635 276.643 367.115C277.139 368.595 277.395 370.289 276.643 371.671C274.657 375.425 276.142 380.531 277.921 384.383C278.282 385.067 278.597 385.773 278.862 386.499C279.388 388.236 278.948 390.101 279.089 391.911C278.577 391.995 278.052 391.96 277.555 391.811C277.059 391.662 276.602 391.401 276.222 391.049C275.953 390.767 275.733 390.437 275.47 390.144C274.735 389.443 273.866 388.9 272.914 388.548C272.356 388.235 271.72 388.088 271.081 388.126C270.409 388.313 269.804 388.689 269.338 389.208C268.734 389.74 268.092 390.228 267.419 390.669C267.132 390.89 266.797 391.039 266.441 391.104C266.262 391.131 266.079 391.102 265.917 391.02C265.756 390.937 265.625 390.806 265.542 390.645C265.504 390.543 265.481 390.436 265.475 390.327C265.248 388.481 265.127 386.623 265.114 384.763C265.114 381.564 261.288 379.363 260.805 376.202C260.419 373.652 261.135 371.053 260.896 368.485C260.78 367.164 260.413 365.868 260.438 364.547C260.438 363.691 260.633 362.853 260.701 362.003C260.757 361.06 260.742 360.113 260.658 359.172L260.468 356.219C260.285 353.302 260.083 350.324 258.934 347.658C257.571 344.545 256.764 341.217 256.55 337.825C256.428 335.685 256.507 333.545 256.263 331.399C256.043 329.46 255.554 327.534 255.694 325.589C255.81 324.085 256.305 322.63 256.422 321.126C256.66 318.233 255.56 315.421 254.698 312.651C253.836 309.88 253.2 306.811 254.331 304.139C254.493 303.7 254.762 303.309 255.113 303.001C255.547 302.714 256.04 302.53 256.556 302.463C267.044 300.259 277.795 299.574 288.478 300.427C290.22 300.526 291.91 301.053 293.399 301.962Z" fill="#3F3D56"/>
<path d="M258.696 237.016C264.104 237.016 268.489 232.631 268.489 227.22C268.489 221.81 264.104 217.424 258.696 217.424C253.287 217.424 248.903 221.81 248.903 227.22C248.903 232.631 253.287 237.016 258.696 237.016Z" fill="#BE6F72"/>
<path d="M256.801 239.456C256.941 240.016 256.941 240.602 256.801 241.162C256.647 241.553 256.43 241.917 256.159 242.238C255.211 243.462 254.162 244.603 253.023 245.65C253.603 246.947 254.648 247.979 255.951 248.543C257.245 249.094 258.602 249.482 259.992 249.698C260.685 249.881 261.407 249.931 262.119 249.845C262.775 249.68 263.396 249.399 263.953 249.014L269.393 245.754C270.214 245.31 270.974 244.761 271.655 244.122C272.653 243.096 273.218 241.725 273.232 240.294C273.258 240.038 273.188 239.781 273.037 239.572C272.828 239.391 272.567 239.281 272.291 239.26C270.377 238.839 268.868 237.285 268.012 235.524C267.238 233.719 266.737 231.809 266.526 229.856L260.725 232.913C259.863 233.372 259.007 233.831 258.115 234.228C257.546 234.485 256.397 234.699 255.994 235.219C255.223 236.179 256.599 238.3 256.801 239.456Z" fill="#BE6F72"/>
<path d="M253.059 243.871C252.233 244.548 251.589 245.42 251.183 246.409C250.804 247.632 251.183 248.922 251.525 250.133C253.129 255.293 254.355 260.564 255.193 265.903C255.706 269.572 255.896 273.296 256.146 277.007C256.66 284.577 257.406 296.648 258.402 304.169C262.07 304.334 265.646 303.264 269.283 302.873C276.081 302.151 283.08 303.802 289.737 302.261C288.124 295.884 286.51 284.993 284.896 278.621C284.182 276.111 283.687 273.543 283.417 270.947C283.276 269.082 283.361 267.211 283.386 265.334C283.441 261.665 283.239 257.996 283.038 254.327C282.805 250.047 282.573 245.767 281.558 241.578C281.487 241.044 281.237 240.55 280.849 240.178C280.238 239.731 279.443 239.89 278.716 239.988C276.488 240.271 274.234 239.737 272.37 238.484C271.563 237.934 270.481 237.261 269.73 237.872C269.409 238.241 269.197 238.692 269.118 239.175C268.786 240.04 268.272 240.824 267.612 241.475C266.952 242.125 266.161 242.627 265.291 242.948C263.549 243.579 261.725 243.954 259.875 244.061C259.309 244.182 258.719 244.116 258.194 243.871C257.326 243.339 257.265 241.425 256.171 241.297C255.211 241.187 253.707 243.253 253.059 243.871Z" fill="#3F3D56"/>
<path d="M267.523 258.803C265.267 256.645 264.277 253.514 262.632 250.854C261.513 249.066 260.082 247.492 258.408 246.207C257.567 245.651 256.795 244.996 256.11 244.256C255.529 243.541 255.089 242.587 254.209 242.312C253.845 242.233 253.467 242.243 253.108 242.342C252.75 242.441 252.42 242.626 252.149 242.88C251.61 243.394 251.099 243.937 250.62 244.507C248.028 247.191 243.474 247.564 241.42 250.671C240.866 251.329 240.489 252.119 240.326 252.964C239.735 257.485 240.903 262.06 243.59 265.744C244.111 266.597 244.91 267.245 245.852 267.578C245.724 268.718 245.875 269.872 246.292 270.941C247.424 274.811 248.815 278.601 250.455 282.284C250.063 283.725 249.789 285.195 249.636 286.681C249.208 290.417 249.606 294.208 249.202 297.95C248.872 301.008 247.979 303.986 247.949 307.049C247.949 307.539 247.992 308.119 248.413 308.37C248.638 308.485 248.889 308.538 249.141 308.523L256.66 308.749C261.025 308.878 265.432 309.006 269.729 308.199C270.302 308.114 270.857 307.939 271.374 307.679C272.829 306.866 273.312 305.031 273.544 303.399C273.847 301.281 273.968 299.141 273.905 297.003C274.816 299.883 275.898 302.861 278.648 304.108C280.103 304.768 281.766 304.72 283.361 304.677C286.8 304.524 290.227 304.17 293.625 303.619C293.835 303.645 294.047 303.622 294.246 303.551C294.445 303.48 294.624 303.363 294.769 303.21C294.915 303.058 295.023 302.873 295.084 302.671C295.146 302.469 295.159 302.255 295.123 302.047L295.16 298.709C295.233 291.927 293.552 285.446 292.898 278.695C292.69 276.567 292.708 274.415 292.189 272.329C291.975 271.455 291.663 270.599 291.473 269.718C291.31 268.856 291.208 267.984 291.168 267.107L290.691 260.381C290.465 257.269 290.141 254.266 289.902 251.16C289.771 248.135 289.333 245.132 288.594 242.196C288.062 240.361 286.956 238.282 285.043 238.056C284.022 237.94 283.031 238.386 282.059 238.698C279.67 239.45 277.106 239.44 274.724 238.667C273.988 238.377 273.221 238.171 272.438 238.056C272.043 238.002 271.642 238.054 271.275 238.207C270.907 238.359 270.587 238.607 270.347 238.924C270.11 239.402 269.998 239.932 270.023 240.465C269.736 246.574 269.204 252.866 267.523 258.803Z" fill="#6F10BA"/>
<path d="M257.687 258.987C254.869 256.015 251.977 252.988 248.346 251.099C246.916 250.353 245.29 249.79 243.707 250.071C242.123 250.353 240.65 251.729 240.723 253.337C240.772 254.333 241.377 255.214 241.567 256.192C241.787 257.293 241.469 258.467 241.812 259.531C242.09 260.232 242.505 260.871 243.034 261.408L247.362 266.539C249.196 268.679 251.03 270.85 253.39 272.329C255.749 273.809 258.806 274.5 261.398 273.448C263.242 272.591 264.775 271.183 265.787 269.419C266.863 267.707 267.621 265.835 268.629 264.068C270.199 261.245 272.271 258.731 274.742 256.651C273.471 256.321 271.875 255.856 271.074 254.817C270.846 254.486 270.652 254.134 270.494 253.765L269.503 251.625C269.167 251.607 268.83 251.659 268.514 251.778C268.199 251.897 267.911 252.08 267.669 252.316C267.245 252.807 266.789 253.27 266.306 253.704C265.444 254.352 264.277 254.529 263.494 255.269C263.192 255.587 262.917 255.93 262.675 256.296C262.083 257.074 261.332 257.717 260.472 258.181C259.612 258.645 258.662 258.92 257.687 258.987V258.987Z" fill="#3F3D56"/>
<path d="M274.968 246.201C277.09 242.33 276.992 237.689 277.597 233.317C277.662 232.159 278.069 231.046 278.764 230.119C279.987 228.737 282.145 228.719 283.991 228.896C284.535 228.957 285.214 229.214 285.183 229.758C285.14 229.953 285.045 230.133 284.908 230.278C283.119 232.588 282.066 235.384 281.888 238.3C282.848 238.967 284.333 237.597 285.256 238.3C285.868 238.814 285.587 239.829 285.22 240.563C284.368 242.263 283.49 243.951 282.585 245.626C281.863 247.103 280.921 248.461 279.791 249.656C279.015 250.402 278.104 250.989 277.316 251.723C275.482 253.441 274.375 255.868 272.48 257.544C272.32 257.717 272.103 257.828 271.869 257.856C271.628 257.838 271.401 257.737 271.227 257.568C270.281 256.798 269.495 255.848 268.916 254.774C268.195 253.441 268.305 253.049 269.442 252.108C271.569 250.426 273.642 248.622 274.968 246.201Z" fill="#BE6F72"/>
<path d="M254.141 256.358C254.508 256.584 254.961 256.841 255.364 256.651C255.529 256.551 255.669 256.415 255.774 256.254C256.472 255.321 257.055 254.306 257.51 253.233C257.588 253.081 257.632 252.914 257.638 252.744C257.638 252.352 257.29 252.065 256.966 251.839C255.23 250.732 253.363 249.845 251.409 249.197C249.795 248.586 248.108 248.054 246.396 248.206C245.753 248.25 245.125 248.423 244.551 248.715C243.976 249.007 243.466 249.412 243.052 249.906C241.83 251.478 243.878 251.955 245.161 252.524C248.132 253.875 251.348 254.658 254.141 256.358Z" fill="#6F10BA"/>
<path opacity="0.1" d="M252.216 266.753C252.195 266.892 252.208 267.035 252.252 267.169C252.297 267.302 252.372 267.424 252.473 267.523C252.65 266.655 252.418 265.738 252.601 264.863C252.87 263.549 254.148 262.558 254.258 261.237C251.916 260.779 252.234 265.334 252.216 266.753Z" fill="black"/>
<path opacity="0.2" d="M360 218.935V224.958L335.145 226.468L334.393 220.439L360 218.935Z" fill="black"/>
<path d="M249.881 228.676C251.433 227.41 250.535 224.756 251.586 223.056C252.197 222.127 253.231 221.638 254.245 221.222C255.47 220.649 256.782 220.285 258.127 220.146C258.801 220.081 259.48 220.169 260.115 220.403C260.75 220.637 261.324 221.011 261.795 221.497C262.192 221.949 262.461 222.5 262.834 222.971C263.296 223.52 263.898 223.934 264.576 224.169C265.254 224.403 265.983 224.45 266.685 224.304C267.498 224.12 268.342 223.503 268.287 222.671C268.195 222.165 267.937 221.705 267.553 221.362L265.805 219.424C263.818 217.223 261.611 214.887 258.696 214.337C256.666 213.951 254.588 214.496 252.631 215.15C251.843 215.413 250.957 215.804 250.736 216.605C250.59 217.155 250.81 217.755 250.681 218.311C250.431 219.418 249.013 219.791 248.352 220.72C247.692 221.65 247.894 222.751 247.704 223.778C247.515 224.805 246.965 225.808 246.898 226.872C246.855 227.514 247.179 228.706 247.9 228.939C248.621 229.171 249.434 227.911 249.881 228.676Z" fill="#3F3D56"/>
<path d="M267.694 221.79C267.178 219.1 266.067 216.559 264.442 214.355C262.997 212.295 260.986 210.698 258.653 209.756C257.487 209.301 256.232 209.115 254.984 209.213C253.736 209.312 252.526 209.692 251.446 210.325C249.842 211.47 248.594 213.045 247.845 214.868C246.262 218.281 245.675 222.451 247.515 225.728C248.249 224.836 249.508 225.239 250.62 224.915C252.014 224.518 253.194 223.588 254.52 223.007C258.524 221.24 263.415 222.671 267.694 221.79Z" fill="#FED253"/>
<path opacity="0.1" d="M248.45 221.601C248.31 220.5 248.218 219.222 249 218.44C249.039 218.392 249.089 218.353 249.145 218.328C249.201 218.302 249.263 218.29 249.324 218.293C249.379 218.311 249.429 218.339 249.472 218.377C249.515 218.415 249.55 218.461 249.575 218.513C250.027 219.226 250.411 219.979 250.724 220.763C250.269 220.658 249.792 220.692 249.356 220.861C248.92 221.03 248.545 221.326 248.279 221.711" fill="black"/>
<path opacity="0.1" d="M262.736 218.495L262.516 216.312C262.481 216.132 262.496 215.945 262.559 215.773C262.651 215.629 262.793 215.525 262.958 215.48C263.123 215.434 263.299 215.452 263.451 215.529C263.752 215.696 264 215.943 264.167 216.244C264.676 217.026 265.098 217.86 265.426 218.733C264.441 218.543 263.429 218.556 262.449 218.77" fill="black"/>
<path opacity="0.1" d="M268.207 307.092V312.082L263.996 312.363H241.842V307.092H268.207Z" fill="black"/>
<path d="M268.207 307.092V312.363H241.842L171.799 224.597V220.451H186.483L268.207 307.092Z" fill="#F1C0C0"/>
<path opacity="0.1" d="M268.207 307.092V312.363H241.842L171.799 224.597V220.451H186.483L268.207 307.092Z" fill="black"/>
<path opacity="0.1" d="M268.207 307.092V312.363H241.842L171.799 224.597V220.451L242.221 307.092H268.207Z" fill="black"/>
<path d="M180.981 395.06C181.027 395.308 181.022 395.563 180.965 395.809C180.908 396.054 180.801 396.286 180.651 396.488C180.5 396.691 180.31 396.86 180.091 396.986C179.872 397.112 179.63 397.191 179.38 397.218C177.68 397.793 175.877 398.362 174.673 399.664C173.468 400.967 173.23 403.382 174.673 404.44C175.41 404.885 176.257 405.116 177.118 405.107C179.887 405.296 182.772 405.259 185.285 404.085C187.082 403.254 188.775 401.835 190.75 401.963C191.771 402.025 192.859 402.502 193.769 402.037C194.68 401.572 194.937 400.276 194.943 399.193C194.966 396.934 194.626 394.686 193.935 392.534C193.843 392.241 189.955 392.015 189.49 391.923L184.777 391.311C183.885 391.195 181.959 390.523 181.256 391.269C180.553 392.015 180.981 394.173 180.981 395.06Z" fill="#6F10BA"/>
<path d="M209.107 379.797C209.307 380.898 209.631 381.973 210.073 383.001C210.727 384.665 211.564 386.432 213.166 387.239C214.621 387.967 216.406 387.704 217.885 387.013C218.503 386.757 219.044 386.346 219.456 385.82C219.934 384.988 220.147 384.031 220.068 383.075C220.068 380.708 219.927 378.262 218.845 376.159C217.916 374.324 216.296 372.747 216.271 370.717L210.703 371.793C210.404 371.822 210.12 371.934 209.883 372.117C209.707 372.303 209.584 372.533 209.529 372.784C208.934 375.072 208.791 377.454 209.107 379.797V379.797Z" fill="#6F10BA"/>
<path d="M142.604 321.707C142.371 323.676 142.469 325.785 143.496 327.485C144.523 329.185 146.687 330.31 148.558 329.631C148.654 329.607 148.744 329.563 148.822 329.504C148.901 329.444 148.967 329.369 149.016 329.283C149.066 329.076 149.038 328.858 148.937 328.671C148.111 326.467 148.179 324.027 149.126 321.872C149.249 321.59 149.511 321.26 149.799 321.37C149.919 321.431 150.016 321.53 150.074 321.652C150.37 322.164 150.518 322.748 150.502 323.339C150.415 323.875 150.399 324.42 150.453 324.96C150.569 325.485 151.131 325.981 151.62 325.755C151.762 325.668 151.884 325.553 151.98 325.417C152.075 325.282 152.142 325.128 152.177 324.966C153.54 321.022 152.923 316.711 152.299 312.583C152.304 312.489 152.289 312.394 152.253 312.306C152.218 312.218 152.163 312.138 152.094 312.074C152.025 312.009 151.942 311.96 151.852 311.931C151.761 311.902 151.666 311.893 151.572 311.905C148.686 311.617 147.109 310.926 145.459 313.611C144.04 315.873 142.604 318.985 142.604 321.707Z" fill="#6F10BA"/>
<path d="M176.335 311.672C175.479 315.231 174.618 318.833 174.562 322.489C174.578 324.767 174.749 327.041 175.076 329.295L175.718 334.59C175.938 336.376 176.152 338.155 176.464 339.923C176.663 340.833 176.771 341.761 176.788 342.693C176.728 343.611 176.582 344.522 176.354 345.414C175.969 347.286 175.754 349.189 175.712 351.1C175.645 354.158 176.024 357.215 176.262 360.273C176.738 366.365 176.666 372.488 176.048 378.568C175.801 380.209 176.157 381.884 177.05 383.283C177.413 383.724 177.711 384.214 177.937 384.738C178.395 386.138 177.326 387.539 177.05 388.976C176.875 390.096 177.15 391.241 177.817 392.158C178.485 393.075 179.488 393.69 180.608 393.867C185.499 394.448 190.524 394.185 194.931 396.423C195.396 395.066 194.381 393.525 194.845 392.143C195.139 391.287 195.946 390.731 196.496 390.009C197.235 388.91 197.603 387.603 197.547 386.279C197.569 384.551 197.262 382.835 196.643 381.222C196.123 379.877 195.377 378.55 195.42 377.107C195.42 376.397 195.671 375.651 195.383 374.997C195.186 374.621 194.919 374.287 194.595 374.013C192.768 372.011 191.645 369.466 191.398 366.767C191.159 364.088 191.245 361.39 191.654 358.732C191.954 356.2 192.357 353.528 193.965 351.553C193.22 345.564 193.658 339.487 195.255 333.667C195.414 333.129 195.665 332.505 196.215 332.377C196.433 332.354 196.654 332.385 196.858 332.466C197.063 332.547 197.244 332.676 197.388 332.842C198.348 333.741 198.807 335.043 199.222 336.29C199.681 337.642 200.145 339.085 199.797 340.467C199.65 341.078 199.357 341.616 199.186 342.203C198.814 343.383 198.879 344.657 199.369 345.793C199.608 346.208 199.758 346.668 199.809 347.144C199.752 347.553 199.629 347.95 199.442 348.318C199.216 349.042 199.144 349.805 199.231 350.558C199.318 351.311 199.563 352.038 199.95 352.69C200.729 353.989 201.69 355.169 202.805 356.194C202.272 358.541 202.41 360.99 203.202 363.263C203.259 363.365 203.295 363.478 203.309 363.594C203.323 363.711 203.313 363.829 203.281 363.942C203.171 364.174 202.89 364.26 202.67 364.425C202.059 364.926 202.438 365.874 202.847 366.528C203.97 368.324 205.209 370.044 206.558 371.677C207.78 373.138 207.67 375.957 209.492 376.483C210.258 376.648 211.05 376.648 211.815 376.483C213.612 376.208 215.617 375.688 216.498 374.098C216.858 373.444 217.005 372.649 217.567 372.16C218.13 371.671 218.857 371.585 219.169 370.998C219.481 370.411 219.132 369.641 219.236 368.962C219.34 368.283 219.933 367.739 220.123 367.023C220.575 365.372 218.649 364.015 218.387 362.327C218.008 359.881 221.088 358.047 220.96 355.601C220.691 350.287 220.52 344.949 220.245 339.635C219.9 334.875 219.851 330.099 220.098 325.333C220.312 322.367 220.709 319.261 219.621 316.503C218.056 312.614 213.741 310.431 209.565 310.015C205.39 309.599 201.227 310.59 197.089 311.238C190.22 312.297 183.242 312.443 176.335 311.672V311.672Z" fill="#3F3D56"/>
<path d="M188.745 253.227C194.153 253.227 198.538 248.841 198.538 243.431C198.538 238.021 194.153 233.635 188.745 233.635C183.336 233.635 178.952 238.021 178.952 243.431C178.952 248.841 183.336 253.227 188.745 253.227Z" fill="#FBBEBE"/>
<path d="M184.759 255.055C184.426 255.83 183.867 256.486 183.154 256.937C182.442 257.387 181.61 257.612 180.767 257.58C180.413 259.048 181.262 260.528 182.234 261.683C184.253 264.033 186.861 265.801 189.79 266.806C192.719 267.811 195.863 268.016 198.898 267.401C200.079 267.189 201.2 266.722 202.181 266.031C203.504 264.926 204.392 263.388 204.687 261.69C204.969 260.003 205.049 258.289 204.926 256.584C204.96 256.247 204.864 255.91 204.657 255.642C204.412 255.453 204.11 255.353 203.801 255.361C201.735 255.177 199.577 255.098 197.761 254.083C195.946 253.068 194.656 250.775 195.53 248.891C195.389 249.185 191.819 249.325 191.349 249.387C189.876 249.594 188.402 249.827 186.935 250.096C186.23 250.135 185.533 250.266 184.863 250.487C183.977 250.946 184.307 250.72 184.514 251.551C184.826 252.823 185.285 253.734 184.759 255.055Z" fill="#FBBEBE"/>
<path d="M192.211 261.011C190.892 261.026 189.576 260.88 188.292 260.577C186.996 260.274 185.854 259.511 185.077 258.43C184.624 257.746 184.331 256.883 183.61 256.498C182.43 255.887 181.085 256.92 180.144 257.868C179.287 258.803 178.293 259.602 177.197 260.24C175.889 260.931 174.361 261.176 173.126 261.989C172.161 262.718 171.333 263.613 170.681 264.631L162.019 276.432C158.54 281.178 155.514 286.271 152.415 291.279C149.732 295.615 148.326 300.604 146.302 305.282C146.142 305.568 146.076 305.898 146.113 306.224C146.186 306.542 146.571 306.799 146.84 306.615C145.929 307.52 146.73 309.061 146.516 310.333C146.273 311.223 145.766 312.018 145.061 312.614C146.407 312.438 147.773 312.502 149.096 312.803C150.463 313.191 151.754 313.812 152.91 314.638C153.65 314.522 153.583 313.207 154.133 312.718C154.463 312.43 154.952 312.467 155.386 312.381C157.018 312.063 157.666 310.101 158.919 308.994C159.965 308.07 161.444 307.771 162.55 306.903C164.348 305.49 164.733 302.977 165.674 300.892C166.475 299.124 167.734 297.584 168.437 295.774C168.896 294.6 169.116 293.328 169.77 292.245C170.815 290.496 172.784 289.567 174.66 288.729C175.846 288.197 177.106 287.647 178.383 287.733C178.316 290.576 177.955 293.377 178.573 296.153C178.787 297.131 179.086 298.085 179.343 299.057C180.51 303.435 180.786 307.997 180.841 312.51C183.649 311.867 186.518 311.523 189.399 311.483C191.667 311.415 193.928 311.709 196.196 311.666C198.886 311.617 201.545 311.097 204.235 310.914C206.925 310.73 209.737 310.914 212.115 312.137C211.922 308.262 212.03 304.377 212.439 300.519L213.087 294.441C213.233 292.675 213.504 290.921 213.9 289.194C214.254 287.8 214.768 286.455 215.159 285.067C216.534 280.175 216.284 274.953 216.021 269.859C215.886 267.242 214.878 264.668 213.692 262.338C213.263 261.472 212.772 260.639 212.225 259.843C210.792 257.868 208.882 256.288 206.673 255.251C204.465 254.214 202.03 253.753 199.595 253.912C199.284 253.921 198.978 253.987 198.69 254.107C198.174 254.438 197.771 254.918 197.535 255.483C196.27 257.757 194.435 259.662 192.211 261.011Z" fill="#3F3D56"/>
<path d="M180.131 246.678C180.407 246.066 181.146 245.84 181.599 245.351C182.467 244.421 182.075 242.936 182.21 241.682C182.43 239.848 183.952 238.313 185.694 237.658C187.471 237.088 189.361 236.968 191.196 237.31C192.079 237.374 192.932 237.658 193.678 238.135C193.996 238.368 194.289 238.667 194.589 238.881C195.135 239.212 195.788 239.315 196.409 239.17C197.031 239.025 197.571 238.643 197.914 238.105C195.75 235.5 193.354 232.748 190.065 231.947C188.937 231.717 187.787 231.608 186.636 231.623C185.114 231.593 183.542 231.568 182.137 232.149C180.223 232.938 178.878 234.754 178.188 236.711C177.583 238.694 177.26 240.752 177.228 242.825C177.102 244.209 177.102 245.6 177.228 246.984C177.464 248.872 178.166 250.673 179.27 252.224C179.419 252.465 179.63 252.661 179.881 252.793C182.668 254.016 179.905 247.185 180.131 246.678Z" fill="#3F3D56"/>
<path d="M197.596 236.594C197.26 233.714 195.206 231.336 193.024 229.422C191.265 227.762 189.169 226.501 186.88 225.722C184.576 225.044 181.922 225.19 179.948 226.566C178.359 227.673 177.35 229.434 176.574 231.207C175.554 233.3 175.049 235.606 175.1 237.934C175.253 240.245 176.378 242.587 178.383 243.755C179.104 242.691 180.358 242.141 181.562 241.706C186.811 239.714 192.163 238.008 197.596 236.594V236.594Z" fill="#FED253"/>
<path opacity="0.1" d="M179.056 235.396C179.251 235.396 179.38 235.598 179.477 235.763C179.975 236.539 180.403 237.357 180.755 238.209C180.04 238.362 178.811 238.533 178.457 237.903C178.267 237.585 178.493 235.365 179.056 235.396Z" fill="black"/>
<path opacity="0.1" d="M192.987 234.014C192.84 234.155 192.669 233.867 192.669 233.659V231.287C192.665 231.221 192.68 231.155 192.712 231.097C192.737 231.068 192.768 231.045 192.803 231.028C192.838 231.011 192.875 231.001 192.914 230.999C193.409 230.944 193.818 231.366 194.136 231.77C194.619 232.424 195.038 233.122 195.389 233.855L192.804 233.775" fill="black"/>
<path d="M225.257 273.302C225.82 272.767 226.421 272.275 227.055 271.828C228.748 270.697 230.796 270.25 232.697 269.529C234.598 268.807 236.53 267.639 237.27 265.744C237.64 264.558 237.761 263.309 237.624 262.075C237.642 261.558 237.55 261.043 237.355 260.564C237.122 260.141 236.791 259.78 236.389 259.513C233.81 257.605 230.35 257.452 227.146 257.648C220.084 258.086 213.162 259.814 206.723 262.747C206.382 262.86 206.084 263.073 205.867 263.359C205.742 263.624 205.685 263.916 205.702 264.209C205.588 266.012 205.823 267.82 206.393 269.535C207.236 271.712 208.973 273.467 209.7 275.686C210.03 276.683 210.14 277.741 210.427 278.744C210.663 279.779 211.275 280.691 212.145 281.3C214.56 282.743 216.84 280.805 218.515 279.3L225.257 273.302Z" fill="#3F3D56"/>
<path d="M193.635 281.771L190.536 275.008C190.081 274.07 189.689 273.104 189.362 272.115C189.008 270.935 188.836 269.712 188.506 268.526C187.418 264.576 184.673 261.286 183.335 257.415C183.25 257.066 183.077 256.744 182.833 256.48C182.638 256.342 182.415 256.248 182.179 256.206C181.943 256.163 181.701 256.173 181.47 256.235C179.6 256.559 178.139 257.984 176.427 258.791C175.632 259.158 174.777 259.403 173.982 259.825C173.585 260.013 173.233 260.284 172.95 260.621C172.667 260.958 172.46 261.351 172.344 261.775C172.154 262.711 172.619 263.61 173.01 264.521C174.673 268.275 175.052 272.47 175.125 276.579C175.18 279.343 175.039 282.309 173.407 284.528C170.271 288.809 172.276 295.095 173.45 300.274C173.591 300.886 173.756 301.546 173.853 302.194C173.957 303.005 174.004 303.822 173.994 304.64C173.994 307.386 173.841 310.217 172.692 312.705C173.827 313.309 175.077 313.664 176.36 313.745C179.909 314.197 183.473 314.515 187.051 314.699C188.172 314.804 189.303 314.747 190.407 314.528C191.719 314.173 192.875 313.391 193.693 312.306C194.511 311.221 194.945 309.894 194.925 308.535C195.121 310.229 195.481 312.07 196.71 313.244C197.939 314.418 199.73 314.595 201.399 314.687C206.109 314.937 210.831 314.804 215.52 314.289C215.819 314.276 216.113 314.207 216.388 314.087C217.292 313.635 217.341 312.387 217.268 311.385C217.133 309.507 216.993 307.63 216.767 305.765C216.575 304.576 216.477 303.374 216.473 302.17C216.566 300.931 216.771 299.703 217.085 298.501C217.904 294.685 218.552 290.79 218.277 286.883C218.168 285.931 218.129 284.972 218.16 284.015C218.319 281.856 219.456 279.802 219.242 277.655C218.631 271.345 218.136 264.869 216.375 258.779C216.058 257.69 215.654 256.523 214.707 255.899C213.484 255.079 211.766 255.508 210.366 254.988C209.709 254.682 209.085 254.311 208.502 253.881C207.235 253.089 205.783 252.642 204.29 252.585C203.165 252.542 201.912 252.793 201.234 253.698C200.919 254.207 200.711 254.775 200.622 255.367C199.736 259.097 198.697 262.784 197.657 266.471L196.661 270.006L193.99 279.496C193.727 280.505 193.904 280.817 193.635 281.771Z" fill="#6F10BA"/>
<path d="M209.266 244.745L268.397 306.903V312.174H242.032L197.596 254.162" fill="#F1C0C0"/>
<path opacity="0.1" d="M209.266 244.745L268.397 306.903V312.174H242.032L197.596 254.162" fill="black"/>
<path opacity="0.1" d="M198.538 253.343L198.727 253.41L242.411 306.903H268.397V312.174H242.032L197.596 254.162L198.538 253.343Z" fill="black"/>
<path d="M205.341 254.651C203.202 255.587 200.824 256.786 200.182 259.036C200.055 259.431 200.028 259.851 200.103 260.259C200.259 260.739 200.557 261.16 200.958 261.466C201.358 261.773 201.842 261.951 202.346 261.977C203.353 262.001 204.354 261.818 205.286 261.439L217.91 257.269C218.252 257.159 218.643 256.993 218.729 256.657C218.751 256.446 218.708 256.232 218.607 256.046C218.215 255.092 217.83 253.141 217.011 252.475C216.339 251.936 215.006 252.126 214.193 252.138C211.063 252.163 208.123 253.429 205.341 254.651Z" fill="#6F10BA"/>
<path d="M216.595 257.764C218.722 257.758 220.836 258.086 222.861 258.736C224.895 259.397 226.696 260.628 228.051 262.283C228.446 262.745 228.726 263.294 228.87 263.885C228.992 264.496 230.985 264.863 230.545 265.279C231.884 265.065 231.566 265.695 232.923 265.683C234.28 265.67 235.747 265.322 236.56 264.24C237.125 263.35 237.377 262.298 237.276 261.249C237.293 260.523 237.156 259.802 236.872 259.134C236.261 257.85 234.855 257.159 233.559 256.565L222.641 251.57C222.008 251.233 221.328 250.992 220.624 250.854C220.031 250.798 219.434 250.813 218.845 250.897L213.9 251.466C214.981 252.166 215.862 253.136 216.454 254.28C217.047 255.424 217.332 256.703 217.28 257.99" fill="#3F3D56"/>
</g>
<defs>
<clipPath id="clip0">
<rect width="720" height="443" fill="white"/>
</clipPath>
</defs>
</svg>
